<svg width="290" height="118" viewBox="0 0 290 118" fill="none" xmlns="http://www.w3.org/2000/svg">
<path d="M20.7584 91.7572V81.2258H26.5351V111.265H21.025L20.8472 107.532H20.4473C18.5366 110.287 15.826 111.798 12.0933 111.798C5.47233 111.798 1.20646 106.51 1.20646 99.6668C1.20646 92.8236 5.47233 87.5357 12.0933 87.5357C15.7815 87.5357 18.4921 89.0466 20.4029 91.7572H20.7584ZM13.7819 107.177C17.4257 107.177 19.7808 105.31 20.7584 103V96.3341C19.7808 94.0234 17.4257 92.1571 13.7819 92.1571C9.73821 92.1571 7.07204 95.3565 7.07204 99.6668C7.07204 104.022 9.73821 107.177 13.7819 107.177ZM41.1254 87.7135C47.9241 87.7135 51.9678 90.3796 51.9678 96.5563V111.265H46.5911L46.3689 107.576H46.0134C44.2359 109.887 41.0365 111.798 37.3928 111.798C32.5492 111.798 29.5276 109.398 29.5276 104.999C29.5276 100.467 32.6381 98.2004 39.1702 98.2004H46.1911V96.9118C46.1911 93.7124 44.1026 92.6015 40.5922 92.6015C38.6814 92.6015 35.7486 93.1791 32.727 95.0454L30.8162 90.824C34.3711 88.5133 37.7483 87.7135 41.1254 87.7135ZM35.3487 104.777C35.3487 106.288 36.2374 107.532 39.0813 107.532C41.7475 107.532 44.1915 106.243 46.1911 104.11V102.022H39.8368C36.5485 102.022 35.3487 102.955 35.3487 104.777ZM65.5316 106.643H70.2419V111.265H62.9543C58.2885 111.265 57.5776 108.643 57.5776 105.755V92.6015H53.5783V88.069H57.5776V82.0256H63.3543V88.069H70.1974V92.6015H63.3543V104.599C63.3543 105.932 63.4876 106.643 65.5316 106.643ZM82.2219 87.7135C89.0207 87.7135 93.0643 90.3796 93.0643 96.5563V111.265H87.6876L87.4654 107.576H87.1099C85.3325 109.887 82.1331 111.798 78.4893 111.798C73.6457 111.798 70.6241 109.398 70.6241 104.999C70.6241 100.467 73.7346 98.2004 80.2667 98.2004H87.2876V96.9118C87.2876 93.7124 85.1991 92.6015 81.6887 92.6015C79.7779 92.6015 76.8451 93.1791 73.8235 95.0454L71.9127 90.824C75.4676 88.5133 78.8448 87.7135 82.2219 87.7135ZM76.4452 104.777C76.4452 106.288 77.3339 107.532 80.1779 107.532C82.844 107.532 85.288 106.243 87.2876 104.11V102.022H80.9333C77.645 102.022 76.4452 102.955 76.4452 104.777ZM115.016 91.846L115.194 88.069H120.704V117.486H114.927V107.621H114.572C112.705 110.331 109.995 111.798 106.307 111.798C99.6857 111.798 95.4198 106.51 95.4198 99.6668C95.4198 92.8236 99.6857 87.5357 106.307 87.5357C110.039 87.5357 112.794 89.091 114.661 91.846H115.016ZM101.285 99.6668C101.285 103.977 103.952 107.177 107.995 107.177C111.595 107.177 113.95 105.399 114.927 103.088V96.2452C113.95 93.9345 111.595 92.1571 107.995 92.1571C103.952 92.1571 101.285 95.3565 101.285 99.6668ZM142.099 103.622V88.069H147.876V111.265H142.41L142.233 107.488H141.833C140.055 109.976 137.211 111.798 133.656 111.798C128.502 111.798 124.591 109.398 124.591 102.2V88.069H130.368V100.822C130.368 105.755 132.146 107.177 135.478 107.177C137.833 107.177 140.722 105.888 142.099 103.622ZM162.483 87.7135C169.282 87.7135 173.325 90.3796 173.325 96.5563V111.265H167.949L167.726 107.576H167.371C165.594 109.887 162.394 111.798 158.75 111.798C153.907 111.798 150.885 109.398 150.885 104.999C150.885 100.467 153.996 98.2004 160.528 98.2004H167.549V96.9118C167.549 93.7124 165.46 92.6015 161.95 92.6015C160.039 92.6015 157.106 93.1791 154.085 95.0454L152.174 90.824C155.729 88.5133 159.106 87.7135 162.483 87.7135ZM156.706 104.777C156.706 106.288 157.595 107.532 160.439 107.532C163.105 107.532 165.549 106.243 167.549 104.11V102.022H161.194C157.906 102.022 156.706 102.955 156.706 104.777ZM191.633 87.5357C196.788 87.5357 200.698 89.9353 200.698 97.1339V111.265H194.922V98.5115C194.922 93.5791 193.189 92.1571 189.812 92.1571C187.456 92.1571 184.568 93.4457 183.191 95.712V111.265H177.414V88.069H182.88L183.057 91.846H183.457C185.19 89.3576 188.079 87.5357 191.633 87.5357ZM214.294 106.643H219.004V111.265H211.717C207.051 111.265 206.34 108.643 206.34 105.755V92.6015H202.341V88.069H206.34V82.0256H212.116V88.069H218.96V92.6015H212.116V104.599C212.116 105.932 212.25 106.643 214.294 106.643ZM238.005 103.622V88.069H243.782V111.265H238.316L238.138 107.488H237.738C235.961 109.976 233.117 111.798 229.562 111.798C224.408 111.798 220.497 109.398 220.497 102.2V88.069H226.274V100.822C226.274 105.755 228.051 107.177 231.384 107.177C233.739 107.177 236.628 105.888 238.005 103.622Z" fill="#4823E8"/>
<path d="M90.2154 65.078H77.8965V1.01904H90.2154V65.078Z" fill="#4823E8"/>
<path d="M125.471 66.2117C109.267 66.2117 97.9902 55.2193 97.9902 40.3417C97.9902 25.4641 109.267 14.4717 125.471 14.4717C141.676 14.4717 152.857 25.4641 152.857 40.3417C152.857 55.2193 141.676 66.2117 125.471 66.2117ZM125.471 55.314C134.379 55.314 140.349 49.1545 140.349 40.3417C140.349 31.5288 134.379 25.3693 125.471 25.3693C116.564 25.3693 110.499 31.5288 110.499 40.3417C110.499 49.1545 116.564 55.314 125.471 55.314Z" fill="#4823E8"/>
<path d="M191.523 14.4752C205.737 14.4752 214.74 25.7519 214.74 40.3452C214.74 54.9385 205.737 66.2152 191.523 66.2152C183.468 66.2152 177.594 62.8987 173.613 56.9285H172.855L172.476 65.078H160.82V1.01904H173.14V23.4776H173.803C177.878 17.6971 183.658 14.4752 191.523 14.4752ZM187.923 56.3599C196.641 56.3599 202.231 49.6319 202.231 40.3452C202.231 31.1533 196.641 24.3304 187.923 24.3304C180.247 24.3304 175.224 28.1209 173.14 33.0486V47.6419C175.224 52.5695 180.247 56.3599 187.923 56.3599Z" fill="#4823E8"/>
<path d="M243.317 14.8486C257.816 14.8486 266.439 20.5343 266.439 33.7062V65.0724H254.973L254.499 57.2072H253.741C249.95 62.1349 243.127 66.2096 235.357 66.2096C225.028 66.2096 218.584 61.0922 218.584 51.711C218.584 42.0453 225.218 37.2124 239.147 37.2124H254.12V34.4643C254.12 27.6415 249.666 25.2724 242.18 25.2724C238.105 25.2724 231.851 26.5043 225.407 30.4843L221.332 21.4819C228.913 16.5544 236.115 14.8486 243.317 14.8486ZM230.998 51.2372C230.998 54.4591 232.893 57.1124 238.958 57.1124C244.644 57.1124 249.855 54.3643 254.12 49.8158V45.362H240.569C233.556 45.362 230.998 47.3519 230.998 51.2372Z" fill="#4823E8"/>
<path d="M289.352 65.078H277.033V1.01904H289.352V65.078Z" fill="#4823E8"/>
<path d="M66.8027 25.7734H35.4316V36.3883H54.5759V50.1304H66.8027V25.7734Z" fill="#4823E8"/>
<path d="M37.3333 54.3924C22.3633 54.3924 12.9816 45.4841 12.9816 33.0706C12.9816 20.7537 21.1304 11.7508 35.2503 11.7508C42.5026 11.7508 48.6429 13.9365 52.9097 18.57L63.3207 12.0147C56.8703 3.38845 45.6957 0 35.345 0C15.6428 0 0 12.3188 0 33.0686C0 51.9266 14.688 66.2337 36.1972 66.2337C38.3305 66.2337 40.3793 66.1352 42.3556 65.9416V54.1124C40.6882 54.3011 39.0114 54.3946 37.3333 54.3924Z" fill="#4823E8"/>
<path d="M280.89 86.5068C286.089 86.5068 290 88.9064 290 96.1055V104.447H284.223V97.4834C284.223 92.5506 282.445 91.1289 279.112 91.1289C276.713 91.1289 273.78 92.4617 272.402 94.7725C272.447 95.2168 272.446 95.6611 272.446 96.1055V110.237H266.669V97.4834C266.669 92.5506 264.936 91.1289 261.559 91.1289C259.203 91.129 256.315 92.4173 254.938 94.6836V110.237H249.16V87.04H254.626L254.804 90.8174H255.204C256.937 88.3288 259.826 86.5068 263.381 86.5068C267.291 86.5069 270.447 87.8848 271.78 91.6621H272.225C273.869 88.7736 276.979 86.5069 280.89 86.5068ZM290 110.237H284.223V110.234H290V110.237Z" fill="#4823E8"/>
</svg>
