<?xml version="1.0" encoding="UTF-8"?>
<svg id="Capa_1" data-name="Capa 1" xmlns="http://www.w3.org/2000/svg" viewBox="0 0 164.63 104.7">
  <defs>
    <style>
      .cls-1 {
        fill-rule: evenodd;
      }

      .cls-1, .cls-2 {
        fill: #fff;
      }
    </style>
  </defs>
  <g>
    <g>
      <path class="cls-2" d="M57.21,53.45h.47v3.56h-.47v-3.56Z"/>
      <path class="cls-2" d="M58.52,53.45h.5l1.87,2.89h0v-2.89h.45v3.56h-.52l-1.86-2.86h0v2.86h-.45v-3.56Z"/>
      <path class="cls-2" d="M62.18,53.45h1.22c1.1,0,1.71.55,1.71,1.69s-.52,1.86-1.71,1.86h-1.22v-3.56ZM62.65,56.61h.79c.32,0,1.2-.09,1.2-1.4,0-.85-.31-1.36-1.19-1.36h-.8v2.76Z"/>
      <path class="cls-2" d="M68.57,55.73c0,.9-.51,1.37-1.4,1.37s-1.46-.42-1.46-1.37v-2.27h.47v2.27c0,.63.35.97.99.97s.93-.34.93-.97v-2.27h.47v2.27Z"/>
      <path class="cls-2" d="M71.44,54.5c-.05-.51-.39-.73-.88-.73-.4,0-.8.14-.8.61,0,.88,2.28.26,2.28,1.66,0,.76-.74,1.06-1.39,1.06-.8,0-1.47-.39-1.47-1.26h.45c0,.6.5.86,1.04.86.43,0,.9-.13.9-.65,0-.98-2.28-.33-2.28-1.64,0-.72.64-1.04,1.29-1.04.73,0,1.29.34,1.31,1.13h-.45Z"/>
      <path class="cls-2" d="M73.46,53.85h-1.19v-.4h2.85v.4h-1.19v3.16h-.47v-3.16Z"/>
      <path class="cls-2" d="M75.56,53.45h1.67c.67,0,1.08.36,1.08.93,0,.43-.18.78-.62.9h0c.41.09.49.4.53.74.02.34,0,.74.21.98h-.53c-.13-.14-.06-.53-.13-.88-.06-.34-.13-.64-.59-.64h-1.16v1.52h-.47v-3.56ZM77.02,55.09c.44,0,.82-.11.82-.63,0-.35-.19-.61-.63-.61h-1.18v1.24h.99Z"/>
      <path class="cls-2" d="M79.04,53.45h.47v3.56h-.47v-3.56Z"/>
      <path class="cls-2" d="M81.33,53.45h.52l1.39,3.56h-.52l-.39-1.07h-1.51l-.4,1.07h-.49l1.39-3.56ZM80.97,55.54h1.21l-.59-1.66h0l-.6,1.66Z"/>
      <path class="cls-2" d="M83.66,56.46h.55v.5c0,.38-.16.67-.55.78v-.25c.22-.08.3-.32.29-.48h-.29v-.55Z"/>
      <path class="cls-2" d="M87.31,53.85h-1.19v-.4h2.85v.4h-1.19v3.16h-.47v-3.16Z"/>
      <path class="cls-2" d="M89.41,53.45h1.67c.67,0,1.08.36,1.08.93,0,.43-.18.78-.62.9h0c.41.09.49.4.53.74.02.34,0,.74.21.98h-.53c-.13-.14-.06-.53-.13-.88-.06-.34-.13-.64-.59-.64h-1.16v1.52h-.47v-3.56ZM90.87,55.09c.44,0,.82-.11.82-.63,0-.35-.19-.61-.63-.61h-1.18v1.24h.99Z"/>
      <path class="cls-2" d="M93.83,53.45h.52l1.39,3.56h-.52l-.39-1.07h-1.51l-.4,1.07h-.49l1.39-3.56ZM93.48,55.54h1.21l-.59-1.66h0l-.6,1.66Z"/>
      <path class="cls-2" d="M96.14,53.45h.5l1.87,2.89h0v-2.89h.45v3.56h-.52l-1.86-2.86h0v2.86h-.45v-3.56Z"/>
      <path class="cls-2" d="M100.6,53.85h-1.19v-.4h2.85v.4h-1.19v3.16h-.47v-3.16Z"/>
      <path class="cls-2" d="M104.76,54.5c-.05-.51-.39-.73-.88-.73-.4,0-.8.14-.8.61,0,.88,2.28.26,2.28,1.66,0,.76-.74,1.06-1.39,1.06-.8,0-1.47-.39-1.47-1.26h.45c0,.6.5.86,1.04.86.43,0,.9-.13.9-.65,0-.98-2.28-.33-2.28-1.64,0-.72.64-1.04,1.29-1.04.73,0,1.29.34,1.31,1.13h-.45Z"/>
      <path class="cls-2" d="M105.99,53.45h.47v3.56h-.47v-3.56Z"/>
      <path class="cls-2" d="M107.03,56.61l2.21-2.76h-2.04v-.4h2.6v.4l-2.21,2.76h2.27v.4h-2.83v-.4Z"/>
      <path class="cls-2" d="M110.42,53.45h.47v3.56h-.47v-3.56Z"/>
      <path class="cls-2" d="M113.24,53.37c1.13,0,1.7.89,1.7,1.86s-.57,1.86-1.7,1.86-1.7-.89-1.7-1.86.57-1.86,1.7-1.86ZM113.24,56.7c.87,0,1.23-.75,1.23-1.47s-.36-1.47-1.23-1.47-1.23.75-1.23,1.47.36,1.47,1.23,1.47Z"/>
      <path class="cls-2" d="M57.19,59.44h2.46v.4h-1.98v1.13h1.85v.4h-1.85v1.23h2v.4h-2.47v-3.56Z"/>
      <path class="cls-2" d="M60.28,59.44h.5l1.87,2.89h0v-2.89h.45v3.56h-.52l-1.86-2.86h0v2.86h-.45v-3.56Z"/>
      <path class="cls-2" d="M63.93,59.44h2.46v.4h-1.98v1.13h1.85v.4h-1.85v1.23h2v.4h-2.47v-3.56Z"/>
      <path class="cls-2" d="M67.02,59.44h1.67c.67,0,1.08.36,1.08.93,0,.43-.18.78-.62.9h0c.41.09.49.4.53.74.02.34,0,.74.21.98h-.53c-.13-.14-.06-.53-.13-.88-.06-.34-.13-.64-.59-.64h-1.16v1.52h-.47v-3.56ZM68.48,61.08c.44,0,.82-.11.82-.63,0-.35-.19-.61-.63-.61h-1.18v1.24h.99Z"/>
      <path class="cls-2" d="M73.15,62.55c-.28.37-.73.53-1.14.53-1.06,0-1.69-.86-1.69-1.79,0-1.04.57-1.93,1.69-1.93.77,0,1.4.35,1.53,1.18h-.47c-.09-.54-.52-.78-1.06-.78-.86,0-1.22.75-1.22,1.51s.43,1.42,1.22,1.42c.74,0,1.17-.51,1.14-1.16h-1.14v-.4h1.56v1.87h-.3l-.12-.44Z"/>
      <path class="cls-2" d="M74.31,59.44h2.46v.4h-1.98v1.13h1.85v.4h-1.85v1.23h2v.4h-2.47v-3.56Z"/>
      <path class="cls-2" d="M78.21,59.84h-1.19v-.4h2.85v.4h-1.19v3.16h-.47v-3.16Z"/>
      <path class="cls-2" d="M80.33,59.44h.47v3.56h-.47v-3.56Z"/>
      <path class="cls-2" d="M81.65,59.44h.47v1.77l1.8-1.77h.61l-1.5,1.44,1.56,2.12h-.6l-1.29-1.8-.59.55v1.25h-.47v-3.56Z"/>
      <path class="cls-2" d="M86.53,59.35c1.13,0,1.7.89,1.7,1.86s-.57,1.86-1.7,1.86-1.7-.89-1.7-1.86.57-1.86,1.7-1.86ZM86.53,62.68c.87,0,1.23-.75,1.23-1.47s-.36-1.47-1.23-1.47-1.23.75-1.23,1.47.36,1.47,1.23,1.47Z"/>
      <path class="cls-2" d="M90.29,59.44h2.46v.4h-1.98v1.13h1.85v.4h-1.85v1.23h2v.4h-2.47v-3.56Z"/>
      <path class="cls-2" d="M94.19,59.84h-1.19v-.4h2.85v.4h-1.19v3.16h-.47v-3.16Z"/>
      <path class="cls-2" d="M97.26,59.44h.52l1.39,3.56h-.52l-.39-1.07h-1.51l-.4,1.07h-.49l1.39-3.56ZM96.9,61.53h1.21l-.59-1.66h0l-.6,1.66Z"/>
      <path class="cls-2" d="M59,68.09c0,.48-.25.97-1.05.97-.66,0-1.04-.36-1.04-1.04v-.22h.47v.15c0,.41.11.71.57.71.43,0,.57-.25.57-.64v-2.6h.47v2.67Z"/>
      <path class="cls-2" d="M60.79,65.42h.52l1.39,3.56h-.52l-.39-1.07h-1.51l-.4,1.07h-.49l1.39-3.56ZM60.44,67.51h1.21l-.59-1.66h0l-.6,1.66Z"/>
      <path class="cls-2" d="M65.16,66.46c-.05-.51-.39-.73-.88-.73-.4,0-.8.14-.8.61,0,.88,2.28.26,2.28,1.66,0,.76-.74,1.06-1.39,1.06-.8,0-1.47-.39-1.47-1.26h.45c0,.6.5.86,1.04.86.43,0,.9-.13.9-.65,0-.98-2.28-.33-2.28-1.64,0-.72.64-1.04,1.29-1.04.73,0,1.29.34,1.31,1.13h-.45Z"/>
      <path class="cls-2" d="M67.35,65.42h.52l1.39,3.56h-.52l-.39-1.07h-1.51l-.4,1.07h-.49l1.39-3.56ZM66.99,67.51h1.21l-.59-1.66h0l-.6,1.66Z"/>
      <path class="cls-2" d="M69.65,65.42h.5l1.87,2.89h0v-2.89h.45v3.56h-.52l-1.86-2.86h0v2.86h-.45v-3.56Z"/>
      <path class="cls-2" d="M75.96,68.54c-.28.37-.73.53-1.14.53-1.06,0-1.69-.86-1.69-1.79,0-1.04.57-1.93,1.69-1.93.77,0,1.4.35,1.53,1.18h-.47c-.09-.54-.52-.78-1.06-.78-.86,0-1.22.75-1.22,1.51s.43,1.42,1.22,1.42c.74,0,1.17-.51,1.14-1.16h-1.14v-.4h1.56v1.87h-.3l-.12-.44Z"/>
      <path class="cls-2" d="M78.1,65.42h.52l1.39,3.56h-.52l-.39-1.07h-1.51l-.4,1.07h-.49l1.39-3.56ZM77.75,67.51h1.21l-.59-1.66h0l-.6,1.66Z"/>
      <path class="cls-2" d="M80.41,65.42h1.67c.67,0,1.08.36,1.08.93,0,.43-.18.78-.62.9h0c.41.09.49.4.53.74.02.34,0,.74.21.98h-.53c-.13-.14-.06-.53-.13-.88-.06-.34-.13-.64-.59-.64h-1.16v1.52h-.47v-3.56ZM81.87,67.06c.44,0,.82-.11.82-.63,0-.35-.19-.61-.63-.61h-1.18v1.24h.99Z"/>
      <path class="cls-2" d="M83.87,65.42h1.67c.67,0,1.08.36,1.08.93,0,.43-.18.78-.62.9h0c.41.09.49.4.53.74.02.34,0,.74.21.98h-.53c-.13-.14-.06-.53-.13-.88-.06-.34-.13-.64-.59-.64h-1.16v1.52h-.47v-3.56ZM85.33,67.06c.44,0,.82-.11.82-.63,0-.35-.19-.61-.63-.61h-1.18v1.24h.99Z"/>
      <path class="cls-2" d="M87.35,65.42h.47v3.56h-.47v-3.56Z"/>
      <path class="cls-2" d="M89.48,65.82h-1.19v-.4h2.85v.4h-1.19v3.16h-.47v-3.16Z"/>
      <path class="cls-2" d="M92.54,65.42h.52l1.39,3.56h-.52l-.39-1.07h-1.51l-.4,1.07h-.49l1.39-3.56ZM92.19,67.51h1.21l-.59-1.66h0l-.6,1.66Z"/>
      <path class="cls-2" d="M96.91,66.46c-.05-.51-.39-.73-.88-.73-.4,0-.8.14-.8.61,0,.88,2.28.26,2.28,1.66,0,.76-.74,1.06-1.39,1.06-.8,0-1.47-.39-1.47-1.26h.45c0,.6.5.86,1.04.86.43,0,.9-.13.9-.65,0-.98-2.28-.33-2.28-1.64,0-.72.64-1.04,1.29-1.04.73,0,1.29.34,1.31,1.13h-.45Z"/>
      <path class="cls-2" d="M100.97,67.7c0,.9-.51,1.37-1.4,1.37s-1.46-.42-1.46-1.37v-2.27h.47v2.27c0,.63.35.97.99.97s.93-.34.93-.97v-2.27h.47v2.27Z"/>
      <path class="cls-2" d="M101.77,65.42h.5l1.87,2.89h0v-2.89h.45v3.56h-.52l-1.86-2.86h0v2.86h-.45v-3.56Z"/>
      <path class="cls-2" d="M108.91,66.46c-.05-.51-.39-.73-.88-.73-.4,0-.8.14-.8.61,0,.88,2.28.26,2.28,1.66,0,.76-.74,1.06-1.39,1.06-.8,0-1.47-.39-1.47-1.26h.45c0,.6.5.86,1.04.86.43,0,.9-.13.9-.65,0-.98-2.28-.33-2.28-1.64,0-.72.64-1.04,1.29-1.04.73,0,1.29.34,1.31,1.13h-.45Z"/>
      <path class="cls-2" d="M111.1,65.42h.52l1.39,3.56h-.52l-.39-1.07h-1.51l-.4,1.07h-.49l1.39-3.56ZM110.74,67.51h1.21l-.59-1.66h0l-.6,1.66Z"/>
      <path class="cls-2" d="M113.43,65.42h.47v3.56h-.47v-3.56Z"/>
      <path class="cls-2" d="M114.74,65.42h.47v3.16h1.88v.4h-2.36v-3.56Z"/>
      <path class="cls-2" d="M118.53,65.42h.52l1.39,3.56h-.52l-.39-1.07h-1.51l-.4,1.07h-.49l1.39-3.56ZM118.17,67.51h1.21l-.59-1.66h0l-.6,1.66Z"/>
    </g>
    <g>
      <path class="cls-2" d="M57.33,76.36h1.22c1.1,0,1.71.55,1.71,1.69s-.52,1.86-1.71,1.86h-1.22v-3.56ZM57.8,79.52h.79c.32,0,1.2-.09,1.2-1.4,0-.85-.31-1.36-1.19-1.36h-.8v2.76Z"/>
      <path class="cls-2" d="M60.89,76.36h2.46v.4h-1.98v1.13h1.85v.4h-1.85v1.23h2v.4h-2.47v-3.56Z"/>
      <path class="cls-2" d="M63.98,76.36h1.56c.71,0,1.09.39,1.09,1.05s-.38,1.06-1.09,1.05h-1.09v1.46h-.47v-3.56ZM64.45,78.06h.93c.54,0,.78-.23.78-.65s-.24-.65-.78-.65h-.93v1.31Z"/>
      <path class="cls-2" d="M68.22,76.36h.52l1.39,3.56h-.52l-.39-1.07h-1.51l-.4,1.07h-.49l1.39-3.56ZM67.87,78.45h1.21l-.59-1.66h0l-.6,1.66Z"/>
      <path class="cls-2" d="M70.53,76.36h1.67c.67,0,1.08.36,1.08.93,0,.43-.18.78-.62.9h0c.41.09.49.4.53.74.02.34,0,.74.21.98h-.53c-.13-.14-.06-.53-.13-.88-.06-.34-.13-.64-.59-.64h-1.16v1.52h-.47v-3.56ZM71.99,78c.44,0,.82-.11.82-.63,0-.35-.19-.61-.63-.61h-1.18v1.24h.99Z"/>
      <path class="cls-2" d="M74.8,76.76h-1.19v-.4h2.85v.4h-1.19v3.16h-.47v-3.16Z"/>
      <path class="cls-2" d="M77.87,76.36h.52l1.39,3.56h-.52l-.39-1.07h-1.51l-.4,1.07h-.49l1.39-3.56ZM77.51,78.45h1.21l-.59-1.66h0l-.6,1.66Z"/>
      <path class="cls-2" d="M80.19,76.36h.65l1.12,2.99,1.13-2.99h.65v3.56h-.45v-2.96h0l-1.11,2.96h-.4l-1.11-2.96h0v2.96h-.45v-3.56Z"/>
      <path class="cls-2" d="M84.57,76.36h2.46v.4h-1.98v1.13h1.85v.4h-1.85v1.23h2v.4h-2.47v-3.56Z"/>
      <path class="cls-2" d="M87.65,76.36h.5l1.87,2.89h0v-2.89h.45v3.56h-.52l-1.86-2.86h0v2.86h-.45v-3.56Z"/>
      <path class="cls-2" d="M92.11,76.76h-1.19v-.4h2.85v.4h-1.19v3.16h-.47v-3.16Z"/>
      <path class="cls-2" d="M95.72,76.27c1.13,0,1.7.89,1.7,1.86s-.57,1.86-1.7,1.86-1.7-.89-1.7-1.86.57-1.86,1.7-1.86ZM95.72,79.6c.87,0,1.23-.75,1.23-1.47s-.36-1.47-1.23-1.47-1.23.75-1.23,1.47.36,1.47,1.23,1.47Z"/>
      <path class="cls-2" d="M99.48,76.36h1.22c1.1,0,1.71.55,1.71,1.69s-.52,1.86-1.71,1.86h-1.22v-3.56ZM99.95,79.52h.79c.32,0,1.2-.09,1.2-1.4,0-.85-.31-1.36-1.19-1.36h-.8v2.76Z"/>
      <path class="cls-2" d="M103.03,76.36h2.46v.4h-1.98v1.13h1.85v.4h-1.85v1.23h2v.4h-2.47v-3.56Z"/>
      <path class="cls-2" d="M107.58,76.36h.47v3.56h-.47v-3.56Z"/>
      <path class="cls-2" d="M108.89,76.36h.5l1.87,2.89h0v-2.89h.45v3.56h-.52l-1.86-2.86h0v2.86h-.45v-3.56Z"/>
      <path class="cls-2" d="M112.54,76.36h1.22c1.1,0,1.71.55,1.71,1.69s-.52,1.86-1.71,1.86h-1.22v-3.56ZM113.01,79.52h.79c.32,0,1.2-.09,1.2-1.4,0-.85-.31-1.36-1.19-1.36h-.8v2.76Z"/>
      <path class="cls-2" d="M118.94,78.63c0,.9-.51,1.37-1.4,1.37s-1.46-.42-1.46-1.37v-2.27h.47v2.27c0,.63.35.97.99.97s.93-.34.93-.97v-2.27h.47v2.27Z"/>
      <path class="cls-2" d="M121.8,77.4c-.05-.51-.39-.73-.88-.73-.4,0-.8.14-.8.61,0,.88,2.28.26,2.28,1.66,0,.76-.74,1.06-1.39,1.06-.8,0-1.47-.39-1.47-1.26h.45c0,.6.5.86,1.04.86.43,0,.9-.13.9-.65,0-.98-2.28-.33-2.28-1.64,0-.72.64-1.04,1.29-1.04.73,0,1.29.34,1.31,1.13h-.45Z"/>
      <path class="cls-2" d="M123.83,76.76h-1.19v-.4h2.85v.4h-1.19v3.16h-.47v-3.16Z"/>
      <path class="cls-2" d="M125.93,76.36h1.67c.67,0,1.08.36,1.08.93,0,.43-.18.78-.62.9h0c.41.09.49.4.53.74.02.34,0,.74.21.98h-.53c-.13-.14-.06-.53-.13-.88-.06-.34-.13-.64-.59-.64h-1.16v1.52h-.47v-3.56ZM127.39,78c.44,0,.82-.11.82-.63,0-.35-.19-.61-.63-.61h-1.18v1.24h.99Z"/>
      <path class="cls-2" d="M129.41,76.36h.47v3.56h-.47v-3.56Z"/>
      <path class="cls-2" d="M131.69,76.36h.52l1.39,3.56h-.52l-.39-1.07h-1.51l-.4,1.07h-.49l1.39-3.56ZM131.34,78.45h1.21l-.59-1.66h0l-.6,1.66Z"/>
      <path class="cls-2" d="M134.02,79.36h.55v.5c0,.38-.16.67-.55.78v-.25c.22-.08.3-.32.29-.48h-.29v-.55Z"/>
      <path class="cls-2" d="M58.14,82.74h-1.19v-.4h2.85v.4h-1.19v3.16h-.47v-3.16Z"/>
      <path class="cls-2" d="M60.24,82.34h1.67c.67,0,1.08.36,1.08.93,0,.43-.18.78-.62.9h0c.41.09.49.4.53.74.02.34,0,.74.21.98h-.53c-.13-.14-.06-.53-.13-.88-.06-.34-.13-.64-.59-.64h-1.16v1.52h-.47v-3.56ZM61.7,83.98c.44,0,.82-.11.82-.63,0-.35-.19-.61-.63-.61h-1.18v1.24h.99Z"/>
      <path class="cls-2" d="M64.66,82.34h.52l1.39,3.56h-.52l-.39-1.07h-1.51l-.4,1.07h-.49l1.39-3.56ZM64.31,84.43h1.21l-.59-1.66h0l-.6,1.66Z"/>
      <path class="cls-2" d="M66.97,82.34h.5l1.87,2.89h0v-2.89h.45v3.56h-.52l-1.86-2.86h0v2.86h-.45v-3.56Z"/>
      <path class="cls-2" d="M72.68,83.39c-.05-.51-.39-.73-.88-.73-.4,0-.8.14-.8.61,0,.88,2.28.26,2.28,1.66,0,.76-.74,1.06-1.39,1.06-.8,0-1.47-.39-1.47-1.26h.45c0,.6.5.86,1.04.86.43,0,.9-.13.9-.65,0-.98-2.28-.33-2.28-1.64,0-.72.64-1.04,1.29-1.04.73,0,1.29.34,1.31,1.13h-.45Z"/>
      <path class="cls-2" d="M73.92,82.34h.47v3.56h-.47v-3.56Z"/>
      <path class="cls-2" d="M77.74,83.42c-.1-.5-.5-.76-1-.76-.85,0-1.21.7-1.21,1.44,0,.81.36,1.49,1.21,1.49.62,0,.99-.44,1.03-1.03h.47c-.09.89-.64,1.43-1.54,1.43-1.1,0-1.65-.82-1.65-1.85s.59-1.87,1.68-1.87c.74,0,1.36.4,1.47,1.16h-.47Z"/>
      <path class="cls-2" d="M78.9,82.34h.47v3.56h-.47v-3.56Z"/>
      <path class="cls-2" d="M81.72,82.26c1.13,0,1.7.89,1.7,1.86s-.57,1.86-1.7,1.86-1.7-.89-1.7-1.86.57-1.86,1.7-1.86ZM81.72,85.59c.87,0,1.23-.75,1.23-1.47s-.36-1.47-1.23-1.47-1.23.75-1.23,1.47.36,1.47,1.23,1.47ZM81.88,81.31h.54l-.65.71h-.32l.43-.71Z"/>
      <path class="cls-2" d="M84.05,82.34h.5l1.87,2.89h0v-2.89h.45v3.56h-.52l-1.86-2.86h0v2.86h-.45v-3.56Z"/>
      <path class="cls-2" d="M89.13,82.34h2.46v.4h-1.98v1.13h1.85v.4h-1.85v1.23h2v.4h-2.47v-3.56Z"/>
      <path class="cls-2" d="M92.22,82.34h.5l1.87,2.89h0v-2.89h.45v3.56h-.52l-1.86-2.86h0v2.86h-.45v-3.56Z"/>
      <path class="cls-2" d="M95.87,82.34h2.46v.4h-1.98v1.13h1.85v.4h-1.85v1.23h2v.4h-2.47v-3.56Z"/>
      <path class="cls-2" d="M98.96,82.34h1.67c.67,0,1.08.36,1.08.93,0,.43-.18.78-.62.9h0c.41.09.49.4.53.74.02.34,0,.74.21.98h-.53c-.13-.14-.06-.53-.13-.88-.06-.34-.13-.64-.59-.64h-1.16v1.52h-.47v-3.56ZM100.42,83.98c.44,0,.82-.11.82-.63,0-.35-.19-.61-.63-.61h-1.18v1.24h.99Z"/>
      <path class="cls-2" d="M105.08,85.46c-.28.37-.73.53-1.14.53-1.06,0-1.69-.86-1.69-1.79,0-1.04.57-1.93,1.69-1.93.77,0,1.4.35,1.53,1.18h-.47c-.09-.54-.52-.78-1.06-.78-.86,0-1.22.75-1.22,1.51s.43,1.42,1.22,1.42c.74,0,1.17-.51,1.14-1.16h-1.14v-.4h1.56v1.87h-.3l-.12-.44Z"/>
      <path class="cls-2" d="M106.25,82.34h2.46v.4h-1.98v1.13h1.85v.4h-1.85v1.23h2v.4h-2.47v-3.56ZM107.71,81.31h.54l-.65.71h-.32l.43-.71Z"/>
      <path class="cls-2" d="M110.15,82.74h-1.19v-.4h2.85v.4h-1.19v3.16h-.47v-3.16Z"/>
      <path class="cls-2" d="M112.27,82.34h.47v3.56h-.47v-3.56Z"/>
      <path class="cls-2" d="M116.09,83.42c-.1-.5-.5-.76-1-.76-.85,0-1.21.7-1.21,1.44,0,.81.36,1.49,1.21,1.49.62,0,.99-.44,1.03-1.03h.47c-.09.89-.64,1.43-1.54,1.43-1.1,0-1.65-.82-1.65-1.85s.59-1.87,1.68-1.87c.74,0,1.36.4,1.47,1.16h-.47Z"/>
      <path class="cls-2" d="M118.2,82.34h.52l1.39,3.56h-.52l-.39-1.07h-1.51l-.4,1.07h-.49l1.39-3.56ZM117.84,84.43h1.21l-.59-1.66h0l-.6,1.66Z"/>
      <path class="cls-2" d="M123.41,84.45v1.46h-.47v-1.46l-1.38-2.1h.56l1.07,1.69,1.04-1.69h.54l-1.36,2.1Z"/>
      <path class="cls-2" d="M59.39,89.37c-.05-.51-.39-.73-.88-.73-.4,0-.8.14-.8.61,0,.88,2.28.26,2.28,1.66,0,.76-.74,1.06-1.39,1.06-.8,0-1.47-.39-1.47-1.26h.45c0,.6.5.86,1.04.86.43,0,.9-.13.9-.65,0-.98-2.28-.33-2.28-1.64,0-.72.64-1.04,1.29-1.04.73,0,1.29.34,1.31,1.13h-.45Z"/>
      <path class="cls-2" d="M62.11,88.24c1.13,0,1.7.89,1.7,1.86s-.57,1.86-1.7,1.86-1.7-.89-1.7-1.86.57-1.86,1.7-1.86ZM62.11,91.57c.87,0,1.23-.75,1.23-1.47s-.36-1.47-1.23-1.47-1.23.75-1.23,1.47.36,1.47,1.23,1.47Z"/>
      <path class="cls-2" d="M66.5,89.37c-.05-.51-.39-.73-.88-.73-.4,0-.8.14-.8.61,0,.88,2.28.26,2.28,1.66,0,.76-.74,1.06-1.39,1.06-.8,0-1.47-.39-1.47-1.26h.45c0,.6.5.86,1.04.86.43,0,.9-.13.9-.65,0-.98-2.28-.33-2.28-1.64,0-.72.64-1.04,1.29-1.04.73,0,1.29.34,1.31,1.13h-.45Z"/>
      <path class="cls-2" d="M68.53,88.73h-1.19v-.4h2.85v.4h-1.19v3.16h-.47v-3.16Z"/>
      <path class="cls-2" d="M70.63,88.33h2.46v.4h-1.98v1.13h1.85v.4h-1.85v1.23h2v.4h-2.47v-3.56Z"/>
      <path class="cls-2" d="M73.71,88.33h.5l1.87,2.89h0v-2.89h.45v3.56h-.52l-1.86-2.86h0v2.86h-.45v-3.56Z"/>
      <path class="cls-2" d="M77.38,88.33h.47v3.56h-.47v-3.56Z"/>
      <path class="cls-2" d="M78.7,88.33h1.29c.31,0,.73,0,.94.13.23.14.42.39.42.74,0,.38-.19.66-.53.8h0c.44.1.68.43.68.87,0,.52-.38,1.02-1.08,1.02h-1.72v-3.56ZM79.17,89.86h.95c.54,0,.76-.19.76-.57,0-.5-.34-.56-.76-.56h-.95v1.13ZM79.17,91.49h1.19c.41,0,.67-.24.67-.64,0-.46-.37-.59-.77-.59h-1.08v1.23Z"/>
      <path class="cls-2" d="M82.18,88.33h.47v3.56h-.47v-3.56Z"/>
      <path class="cls-2" d="M83.5,88.33h.47v3.16h1.88v.4h-2.36v-3.56Z"/>
      <path class="cls-2" d="M86.34,88.33h.47v3.56h-.47v-3.56Z"/>
      <path class="cls-2" d="M87.65,88.33h1.22c1.1,0,1.71.55,1.71,1.69s-.52,1.86-1.71,1.86h-1.22v-3.56ZM88.13,91.49h.79c.32,0,1.2-.09,1.2-1.4,0-.85-.31-1.36-1.19-1.36h-.8v2.76Z"/>
      <path class="cls-2" d="M92.18,88.33h.52l1.39,3.56h-.52l-.39-1.07h-1.51l-.4,1.07h-.49l1.39-3.56ZM91.82,90.42h1.21l-.59-1.66h0l-.6,1.66Z"/>
      <path class="cls-2" d="M94.49,88.33h1.22c1.1,0,1.71.55,1.71,1.69s-.52,1.86-1.71,1.86h-1.22v-3.56ZM94.96,91.49h.79c.32,0,1.2-.09,1.2-1.4,0-.85-.31-1.36-1.19-1.36h-.8v2.76Z"/>
    </g>
  </g>
  <g>
    <path class="cls-2" d="M61.12,28.7l-.17.83c-.07.36-.11.38-.53.38-.32,0-1.16-.04-2.06-.04-.33,0-.74,0-1.23.03.19-.39.24-.75.24-1.14v-3.8s0-.1,0-.15c-.25.02-.57.08-.95.17.23-.39.4-.77.53-1.16.17.03.34.03.52.03h3c.29,0,.4.04.42.26l-.26.91c-.24-.11-.51-.11-.82-.11h-1.06v1.29h1.33c.2,0,.39,0,.57-.05l-.23,1.13c-.19-.03-.38-.05-.54-.05h-1.13v1.59h1.52c.4,0,.69-.03.86-.12Z"/>
    <path class="cls-2" d="M67.76,29.68l-1.42.31c-.17-.17-.27-.29-.3-.4-.53.29-1.08.42-1.71.42-1.73,0-2.56-.88-2.56-2.68,0-.96.2-1.81.3-2.5-.23.03-.52.08-.84.15.23-.39.4-.77.53-1.16.17.03.34.03.52.03h1.57c-.51,1.44-.69,2.67-.69,3.39,0,1.11.46,1.61,1.45,1.61.55,0,1.01-.15,1.28-.39v-3.45c0-.48-.05-.85-.25-1.16h1.9c-.21.32-.24.69-.24,1.17v3.45c0,.61.14,1.01.47,1.21Z"/>
    <path class="cls-2" d="M72.38,28.15c0,.99-.87,1.85-2.41,1.85-1.07,0-1.78-.22-1.78-.59v-.03l.1-1.11c.45.43,1.1.61,1.71.61.56,0,.89-.32.89-.65,0-.9-2.52-1.1-2.52-2.77,0-.89.86-1.69,2.24-1.69.74,0,1.32.12,1.52.29l-.33,1.07c-.45-.25-.97-.31-1.35-.31-.46,0-.66.16-.71.43-.06.35.33.57.9.9.93.54,1.71.65,1.72,2Z"/>
    <path class="cls-2" d="M78.94,29.19c-.62.49-1.02.79-1.31.79-.33,0-.89-.48-1.71-1.47l-.87-1.04-.31.27v1.02c0,.49.07.86.26,1.14h-1.87c.19-.29.26-.66.26-1.14v-3.76c0-.06,0-.12,0-.18-.25.02-.57.08-.95.17.23-.39.4-.77.53-1.16.17.03.34.03.52.03h1.52c-.18.26-.26.65-.26,1.15v1.54l1.11-1.3c.79-.92,1.27-1.4,1.62-1.4.11,0,.24.04.36.13l.65.47c-.61.38-1.21.86-1.76,1.43l-.81.82.89.95c.78.82,1.62,1.37,2.13,1.54Z"/>
    <path class="cls-2" d="M81.8,23.74c-1.99,0-3.07,1.1-3.07,3.12s1.08,3.13,3.07,3.13,3.07-1.11,3.07-3.13-1.08-3.12-3.07-3.12ZM81.8,28.84c-1.08,0-1.68-.69-1.68-1.98s.6-1.97,1.68-1.97,1.66.68,1.66,1.97-.59,1.98-1.66,1.98Z"/>
    <path class="cls-2" d="M90.92,26.99v1.61c0,.84-.16,1.27-.41,1.66-.14.23-.31.44-.51.63-.39.36-.71.54-1,.54-.27,0-.56-.12-.87-.35.55-.29,1-.76,1.23-1.27.13-.29.16-.49.16-1.17v-3.69s0-.15,0-.15h-.02c-.28,0-.36.05-.92.18.23-.4.4-.77.53-1.17.17.04,0,.04.18.04h1.9s-.27.35-.25,1.17v1.96Z"/>
    <path class="cls-2" d="M97.78,29.89c-.09-2.5-.77-4.61-1.87-6.05h-2.21c-.18,0-.34,0-.52-.04-.12.4-.3.77-.53,1.17.56-.13.98-.18,1.26-.18h.15c-1.32,1.46-2.01,3.14-2.01,4.96v.14h1.52c-.14-.73-.05-1.28.05-1.72l1.33.67,1.27-.61c.05.42.13.99-.04,1.67h1.6ZM94.97,27.68l-1.04-.53c.12-.32.53-1.45,1.3-2.33.61.9.83,2.32.83,2.32l-1.09.54Z"/>
    <path class="cls-2" d="M104.44,29.68l-1.42.31c-.17-.17-.27-.29-.3-.4-.53.29-1.08.42-1.71.42-1.73,0-2.56-.88-2.56-2.68,0-.96.2-1.81.3-2.49-.23.03-.51.08-.83.15.23-.39.4-.77.53-1.16.18.03.34.03.52.03h1.56c-.51,1.44-.69,2.67-.69,3.39,0,1.11.46,1.61,1.45,1.61.55,0,1.01-.15,1.28-.39v-3.45c0-.48-.05-.85-.25-1.16h1.9c-.21.32-.24.69-.24,1.17v3.45c0,.61.14,1.01.47,1.21Z"/>
    <path class="cls-2" d="M108.8,27.22c.55-.29.86-.85.86-1.55,0-1.1-.72-1.82-2.16-1.82-.18,0-.36,0-.54,0h-1.29c-.18,0-.34,0-.52-.03-.12.4-.3.77-.53,1.17.38-.09.7-.14.96-.17,0,.06,0,.12,0,.18v3.77c0,.48-.06.85-.26,1.14h1.81c-.17-.25-.26-.64-.26-1.14v-1.2h.18c.18,0,.27,0,.44-.02l.84,1.32c.51.97,2,1.68,2.61,1.4-1.14-.68-2.15-3.04-2.15-3.04ZM107.26,26.54h-.24s-.06,0-.15-.02v-1.67c.14-.02.29-.03.44-.03.7,0,1.07.31,1.07.84s-.38.88-1.12.88Z"/>
    <path class="cls-2" d="M114.86,28.54l-.18,1.06c-.05.29-.18.33-.47.33-.55,0-1.22-.07-2.22-.07-.27,0-.55.02-.82.03.19-.32.24-.6.24-.93v-3.86c0-.09,0-.19,0-.29-.25.03-.57.08-.95.17.23-.39.4-.77.52-1.16.18.03.34.03.52.03h1.66l-.14.1c-.2.45-.21.81-.21,1.16v3.7h1.21c.2,0,.51-.1.85-.26Z"/>
    <path class="cls-2" d="M120.99,29.89c-.09-2.5-.77-4.61-1.87-6.05h-2.21c-.17,0-.34,0-.52-.04-.12.4-.3.77-.53,1.17.56-.13.98-.18,1.26-.18h.15c-1.32,1.46-2.01,3.14-2.01,4.96v.14h1.52c-.14-.73-.05-1.28.05-1.72l1.33.67,1.27-.61c.05.42.12.99-.04,1.67h1.6ZM118.18,27.68l-1.04-.53c.12-.32.53-1.45,1.3-2.33.6.9.83,2.32.83,2.32l-1.09.54Z"/>
    <path class="cls-2" d="M125.32,27.22c.55-.29.86-.85.86-1.55,0-1.1-.72-1.82-2.16-1.82-.18,0-.36,0-.54,0h-1.3c-.18,0-.34,0-.52-.03-.12.4-.3.77-.53,1.17.38-.09.7-.14.96-.17,0,.06,0,.12,0,.18v3.77c0,.48-.06.85-.25,1.14h1.81c-.17-.25-.26-.64-.26-1.14v-1.2h.18c.18,0,.13,0,.3-.02l.84,1.32c.51.97,2.13,1.68,2.74,1.4-1.14-.68-2.15-3.04-2.15-3.04ZM123.79,26.54h-.24s-.06,0-.15-.02v-1.67c.14-.02.29-.03.44-.03.7,0,1.07.31,1.07.84s-.38.88-1.12.88Z"/>
    <path class="cls-2" d="M129.25,28.76c0,.5.07.87.25,1.14h-1.91c.18-.28.25-.65.25-1.14v-3.76c0-.49-.07-.87-.25-1.15h1.91c-.18.27-.25.65-.25,1.15v3.76Z"/>
    <path class="cls-2" d="M134.95,23.79l-.23.9c-.08.32-.19.32-.53.32h-1.08v3.76c0,.49.07.86.25,1.14h-1.91c.18-.26.25-.63.25-1.14v-3.76h-.79c-.26,0-.62.04-1.04.16l.38-1.1c.07-.2.22-.2.46-.2h3.52c.28,0,.53,0,.73-.06Z"/>
    <path class="cls-2" d="M139.93,28.52l-.21,1.03c-.06.33-.18.38-.48.38-.38,0-1.32-.06-2.82-.06-.57,0-1.13,0-1.68.03l2.96-5h-1.23c-.44,0-.78.08-1.23.26l.28-.97c.07-.24.14-.34.36-.34h4.01l-2.9,4.97c.19,0,.18-.02.34-.02.63,0,1.14.04,1.53.04s.75-.15,1.06-.32Z"/>
    <path class="cls-2" d="M146.09,29.89c-.09-2.5-.77-4.61-1.87-6.05h-2.21c-.18,0-.34,0-.52-.04-.12.4-.3.77-.53,1.17.56-.13.98-.18,1.26-.18h.15c-1.32,1.46-2.01,3.14-2.01,4.96v.14h1.52c-.14-.73-.05-1.28.05-1.72l1.33.67,1.27-.61c.05.42.13.99-.04,1.67h1.59ZM143.28,27.68l-1.04-.53c.12-.32.53-1.45,1.3-2.33.61.9.83,2.32.83,2.32l-1.09.54Z"/>
    <g>
      <rect class="cls-2" x="40.93" y="32.83" width=".68" height=".04"/>
      <rect class="cls-2" x="41.82" y="32.83" width="1.11" height=".04"/>
      <path class="cls-2" d="M48,32.83h-.44c.05-.13.06-.33.06-.56h.38c.01.22.01.41,0,.56Z"/>
      <path class="cls-2" d="M46.63,40.24s-.3.09-.46,1.05c0,0-.58.17-1.06.81v-4.68c.24-.18.63-.4.97-.21,0,0,.31.46.68.28,0,0,.24.39-.03.74,0,0,.2.13.33.44,0,0-.69.42-.43,1.57Z"/>
      <path class="cls-2" d="M50.7,38.63s.24,1.25-1.06,1.11c0,0-.06.73-.66.62,0,0-1.6-.82-1.95,1.34,0,0-.06.19.27.06l.79-.59s-.09-.43.42-.57l.07.26s.59-.21.87-.08c0,0,.56.15.23.79,0,0-.29.29-.79.21,0,0-.26-.03-.11.26-.09-.07-.53.09-.59-.41,0,0-.45.05-.56.39,0,0,.67.43.12,1.06,0,0,.3.7-.24,1,0,0,.01.03.02.09.03.18,0,.59-.61.83,0,0-.24.79-1.19.91h-.83v-.05c.07.02.14.03.21.04v-2.4c.2-.13.51-.3.73-.26,0,0-.28-1.02.91-1.28,0,0-.25-.71.54-1.68,0,0-.46-.55.26-1.21,0,0,.49-1.2,1.25-.91,0,0,.06-1.28,1.2-.54,0,0,.72-1.1,1.05-.08,0,0,0,.12.24.24.06.14.3.67-.57.86Z"/>
      <path class="cls-2" d="M58.47,38.25c0,1.19.65,1.95,1.59,1.95.4,0,.67-.07.79-.17l.04-.07v-.95s0-.16,0-.16h-.02c-.28,0-.7.05-1.26.18.23-.4.4-.77.53-1.17.17.04.34.04.52.04h1.79s-.27.35-.25,1.17v1.86c-.54.25-1.35.42-2.03.42-1.99,0-3.19-1.18-3.19-3.15s1.27-3.1,3.26-3.1c.64,0,1.25.13,1.75.35.22.09.22.13.22.29,0,.03,0,.05-.03.1l-.28.87c-.39-.29-.99-.47-1.52-.47-1.21,0-1.91.75-1.91,2Z"/>
      <path class="cls-2" d="M66.6,35.12c-1.99,0-3.07,1.1-3.07,3.12s1.08,3.13,3.07,3.13,3.07-1.11,3.07-3.13-1.08-3.12-3.07-3.12ZM66.6,40.22c-1.08,0-1.67-.69-1.67-1.98s.59-1.97,1.67-1.97,1.66.68,1.66,1.97-.59,1.98-1.66,1.98Z"/>
      <path class="cls-2" d="M74.81,38.01c.46-.27.72-.74.72-1.32,0-.88-.66-1.52-1.66-1.52-.46,0-1.25,0-1.43,0h-1.12c-.18,0-.34,0-.52-.04-.12.4-.3.77-.53,1.17.43-.1.78-.16,1.05-.18v4.17c0,.34-.05.65-.22.98.27-.02.46-.03.55-.03.47,0,1.15.04,1.57.04,1.65,0,2.5-.73,2.5-1.87,0-.62-.32-1.13-.91-1.41ZM72.64,36.3c.17-.11.56-.15.77-.15.51,0,.81.29.81.74,0,.52-.35.77-1.05.77-.04,0-.37,0-.53-.03v-1.33ZM73.32,40.29c-.12,0-.5,0-.67-.03v-1.74c.16,0,.54-.02.69-.02.66,0,1.02.33,1.02.89s-.39.89-1.04.89Z"/>
      <path class="cls-2" d="M77.45,40.13v-3.76c0-.49-.07-.87-.25-1.15h1.91c-.18.27-.25.65-.25,1.15v3.76c0,.5.07.87.25,1.14h-1.91c.18-.28.25-.65.25-1.14Z"/>
      <path class="cls-2" d="M82.37,36.29v1.29h1.33c.2,0,.39,0,.57-.05l-.23,1.13c-.19-.03-.38-.04-.54-.04h-1.13v1.59h1.52c.4,0,.69-.04.86-.12l-.17.83c-.07.36-.11.38-.53.38-.32,0-1.16-.05-2.06-.05-.33,0-.75,0-1.23.03.19-.39.24-.75.24-1.14v-3.8c0-.05,0-.1,0-.15-.25.02-.57.08-.95.17.23-.4.4-.77.53-1.17.17.04.34.04.52.04h3c.29,0,.4.03.42.26l-.26.91c-.24-.1-.51-.1-.82-.1h-1.06Z"/>
      <path class="cls-2" d="M89.54,38.6c.55-.29.86-.85.86-1.55,0-1.1-.72-1.82-2.15-1.82-.18,0-.37,0-.54,0h-1.29c-.18,0-.34,0-.52-.03-.12.4-.3.77-.53,1.17.38-.09.7-.14.96-.17,0,.06,0,.11,0,.18v3.77c0,.48-.06.85-.25,1.14h1.81c-.17-.25-.26-.64-.26-1.14v-1.2h.18c.18,0,.14,0,.3-.02l.84,1.32c.51.97,2.13,1.68,2.74,1.4-1.14-.68-2.15-3.04-2.15-3.04ZM88.01,37.92h-.24s-.06,0-.15-.02v-1.67c.14-.02.29-.03.44-.03.7,0,1.07.31,1.07.84s-.38.88-1.12.88Z"/>
      <path class="cls-2" d="M96.89,39.27v-2.9c0-.5-.08-.88-.25-1.15h1.84c-.19.3-.25.67-.25,1.15v4.05c0,.3.03.59.07.85h-1.29l-3.12-4.3v3.17c0,.46.05.83.24,1.14h-1.84c.19-.29.26-.66.26-1.14v-3.76c0-.07,0-.13,0-.19-.26.02-.61.08-1.03.17.23-.4.4-.77.53-1.17.17.04.34.04.52.04h1.4l2.94,4.05Z"/>
      <path class="cls-2" d="M102.65,35.12c-1.99,0-3.07,1.1-3.07,3.12s1.08,3.13,3.07,3.13,3.07-1.11,3.07-3.13-1.08-3.12-3.07-3.12ZM102.65,40.22c-1.08,0-1.67-.69-1.67-1.98s.59-1.97,1.67-1.97,1.67.68,1.67,1.97-.59,1.98-1.67,1.98Z"/>
      <path class="cls-2" d="M111.56,35.22s-.68.76,1.19,3.8l1.36-3.31c.09-.19.13-.35.13-.48h1.77c-.21.23-.44.57-.67,1.01l-2.56,5.14h-.24s-2.09-3.15-2.44-5.2h-.03c-.28,0-.7.04-1.26.18.23-.4.4-.77.52-1.17.18.03.34.03.52.03h1.71Z"/>
      <path class="cls-2" d="M121.62,41.27c-.09-2.5-.77-4.61-1.87-6.05h-2.21c-.17,0-.34,0-.52-.03-.12.39-.3.77-.53,1.16.56-.13.98-.18,1.26-.18h.15c-1.32,1.46-2.01,3.14-2.01,4.96v.14h1.52c-.14-.73-.05-1.28.05-1.72l1.33.67,1.27-.62c.05.42.12.99-.04,1.67h1.6ZM118.81,39.06l-1.04-.53c.12-.32.53-1.45,1.3-2.33.6.9.83,2.32.83,2.32l-1.09.55Z"/>
      <path class="cls-2" d="M125.19,39.57c0-.9-2.52-1.1-2.52-2.77,0-.89.86-1.69,2.24-1.69.93,0,1.6.19,1.6.42,0,.02-.02.09-.05.18l-.23.82c-.47-.32-1.05-.38-1.47-.38-.45,0-.66.16-.71.43-.06.35.33.56.9.9.93.54,1.71.65,1.72,2,0,.99-.87,1.84-2.41,1.84-1.07,0-1.78-.22-1.78-.59v-.03l.1-1.12c.45.43,1.1.62,1.71.62.56,0,.89-.32.89-.65Z"/>
      <path class="cls-2" d="M129.01,38.25c0,1.23.68,1.92,1.74,1.92.67,0,1.31-.25,1.72-.67v1.12c0,.15,0,.25-.09.33-.12.13-.79.41-1.73.41-1.94,0-3.06-1.13-3.06-3.1s1.13-3.15,3.01-3.15c1.07,0,1.94.32,1.94.52,0,.02-.02.06-.03.12l-.32,1c-.42-.32-.93-.49-1.43-.49-1.09,0-1.75.72-1.75,1.98Z"/>
      <path class="cls-2" d="M136.46,35.12c-1.99,0-3.07,1.1-3.07,3.12s1.08,3.13,3.07,3.13,3.07-1.11,3.07-3.13-1.08-3.12-3.07-3.12ZM136.46,40.22c-1.08,0-1.67-.69-1.67-1.98s.6-1.97,1.67-1.97,1.67.68,1.67,1.97-.59,1.98-1.67,1.98Z"/>
      <path class="cls-2" d="M157.63,19.19v26.72H47.19c.11-.13.2-.29.27-.48,0,0,.79-.39.72-.94,0,0,.13-.12.24-.31h107.47v-11.33H52.08c.06-.17.1-.35.11-.56h103.71v-11.35H49.45c-.15-.64-.58-1.35-1.73-1.17,0,0-.25-.44-.51-.57h110.42Z"/>
    </g>
    <path class="cls-1" d="M81.8,23.74c-1.99,0-3.07,1.1-3.07,3.12s1.08,3.13,3.07,3.13,3.07-1.11,3.07-3.13-1.08-3.12-3.07-3.12ZM81.8,28.84c-1.08,0-1.68-.69-1.68-1.98s.6-1.97,1.68-1.97,1.66.68,1.66,1.97-.59,1.98-1.66,1.98Z"/>
    <path class="cls-1" d="M134.95,23.79l-.23.9c-.08.32-.19.32-.53.32h-1.08v3.76c0,.49.07.86.25,1.14h-1.91c.18-.26.25-.63.25-1.14v-3.76h-.79c-.26,0-.62.04-1.04.16l.38-1.1c.07-.2.22-.2.46-.2h3.52c.28,0,.53,0,.73-.06Z"/>
    <path class="cls-1" d="M139.93,28.52l-.21,1.03c-.06.33-.18.38-.48.38-.38,0-1.32-.06-2.82-.06-.57,0-1.13,0-1.68.03l2.96-5h-1.23c-.44,0-.78.08-1.23.26l.28-.97c.07-.24.14-.34.36-.34h4.01l-2.9,4.97c.19,0,.18-.02.34-.02.63,0,1.14.04,1.53.04s.75-.15,1.06-.32Z"/>
    <path class="cls-1" d="M90.92,26.99v1.61c0,.84-.16,1.27-.41,1.66-.14.23-.31.44-.51.63-.39.36-.71.54-1,.54-.27,0-.56-.12-.87-.35.55-.29,1-.76,1.23-1.27.13-.29.16-.49.16-1.17v-3.69s0-.15,0-.15h-.02c-.28,0-.36.05-.92.18.23-.4.4-.77.53-1.17.17.04,0,.04.18.04h1.9s-.27.35-.25,1.17v1.96Z"/>
    <path class="cls-1" d="M108.8,27.22c.55-.29.86-.85.86-1.55,0-1.1-.72-1.82-2.16-1.82-.18,0-.36,0-.54,0h-1.29c-.18,0-.34,0-.52-.03-.12.4-.3.77-.53,1.17.38-.09.7-.14.96-.17,0,.06,0,.12,0,.18v3.77c0,.48-.06.85-.26,1.14h1.81c-.17-.25-.26-.64-.26-1.14v-1.2h.18c.18,0,.27,0,.44-.02l.84,1.32c.51.97,2,1.68,2.61,1.4-1.14-.68-2.15-3.04-2.15-3.04ZM107.26,26.54h-.24s-.06,0-.15-.02v-1.67c.14-.02.29-.03.44-.03.7,0,1.07.31,1.07.84s-.38.88-1.12.88Z"/>
    <path class="cls-1" d="M125.32,27.22c.55-.29.86-.85.86-1.55,0-1.1-.72-1.82-2.16-1.82-.18,0-.36,0-.54,0h-1.3c-.18,0-.34,0-.52-.03-.12.4-.3.77-.53,1.17.38-.09.7-.14.96-.17,0,.06,0,.12,0,.18v3.77c0,.48-.06.85-.25,1.14h1.81c-.17-.25-.26-.64-.26-1.14v-1.2h.18c.18,0,.13,0,.3-.02l.84,1.32c.51.97,2.13,1.68,2.74,1.4-1.14-.68-2.15-3.04-2.15-3.04ZM123.79,26.54h-.24s-.06,0-.15-.02v-1.67c.14-.02.29-.03.44-.03.7,0,1.07.31,1.07.84s-.38.88-1.12.88Z"/>
    <path class="cls-2" d="M61.12,28.7l-.17.83c-.07.36-.11.38-.53.38-.32,0-1.16-.04-2.06-.04-.33,0-.74,0-1.23.03.19-.39.24-.75.24-1.14v-3.8s0-.1,0-.15c-.25.02-.57.08-.95.17.23-.39.4-.77.53-1.16.17.03.34.03.52.03h3c.29,0,.4.04.42.26l-.26.91c-.24-.11-.51-.11-.82-.11h-1.06v1.29h1.33c.2,0,.39,0,.57-.05l-.23,1.13c-.19-.03-.38-.05-.54-.05h-1.13v1.59h1.52c.4,0,.69-.03.86-.12Z"/>
    <path class="cls-2" d="M67.76,29.68l-1.42.31c-.17-.17-.27-.29-.3-.4-.53.29-1.08.42-1.71.42-1.73,0-2.56-.88-2.56-2.68,0-.96.2-1.81.3-2.5-.23.03-.52.08-.84.15.23-.39.4-.77.53-1.16.17.03.34.03.52.03h1.57c-.51,1.44-.69,2.67-.69,3.39,0,1.11.46,1.61,1.45,1.61.55,0,1.01-.15,1.28-.39v-3.45c0-.48-.05-.85-.25-1.16h1.9c-.21.32-.24.69-.24,1.17v3.45c0,.61.14,1.01.47,1.21Z"/>
    <path class="cls-2" d="M78.94,29.19c-.62.49-1.02.79-1.31.79-.33,0-.89-.48-1.71-1.47l-.87-1.04-.31.27v1.02c0,.49.07.86.26,1.14h-1.87c.19-.29.26-.66.26-1.14v-3.76c0-.06,0-.12,0-.18-.25.02-.57.08-.95.17.23-.39.4-.77.53-1.16.17.03.34.03.52.03h1.52c-.18.26-.26.65-.26,1.15v1.54l1.11-1.3c.79-.92,1.27-1.4,1.62-1.4.11,0,.24.04.36.13l.65.47c-.61.38-1.21.86-1.76,1.43l-.81.82.89.95c.78.82,1.62,1.37,2.13,1.54Z"/>
    <path class="cls-2" d="M104.44,29.68l-1.42.31c-.17-.17-.27-.29-.3-.4-.53.29-1.08.42-1.71.42-1.73,0-2.56-.88-2.56-2.68,0-.96.2-1.81.3-2.49-.23.03-.51.08-.83.15.23-.39.4-.77.53-1.16.18.03.34.03.52.03h1.56c-.51,1.44-.69,2.67-.69,3.39,0,1.11.46,1.61,1.45,1.61.55,0,1.01-.15,1.28-.39v-3.45c0-.48-.05-.85-.25-1.16h1.9c-.21.32-.24.69-.24,1.17v3.45c0,.61.14,1.01.47,1.21Z"/>
    <path class="cls-2" d="M114.86,28.54l-.18,1.06c-.05.29-.18.33-.47.33-.55,0-1.22-.07-2.22-.07-.27,0-.55.02-.82.03.19-.32.24-.6.24-.93v-3.86c0-.09,0-.19,0-.29-.25.03-.57.08-.95.17.23-.39.4-.77.52-1.16.18.03.34.03.52.03h1.66l-.14.1c-.2.45-.21.81-.21,1.16v3.7h1.21c.2,0,.51-.1.85-.26Z"/>
    <path class="cls-1" d="M72.38,28.15c0,.99-.87,1.85-2.41,1.85-1.07,0-1.78-.22-1.78-.59v-.03l.1-1.11c.45.43,1.1.61,1.71.61.56,0,.89-.32.89-.65,0-.9-2.52-1.1-2.52-2.77,0-.89.86-1.69,2.24-1.69.74,0,1.32.12,1.52.29l-.33,1.07c-.45-.25-.97-.31-1.35-.31-.46,0-.66.16-.71.43-.06.35.33.57.9.9.93.54,1.71.65,1.72,2Z"/>
    <path class="cls-1" d="M129.25,28.76c0,.5.07.87.25,1.14h-1.91c.18-.28.25-.65.25-1.14v-3.76c0-.49-.07-.87-.25-1.15h1.91c-.18.27-.25.65-.25,1.15v3.76Z"/>
    <path class="cls-1" d="M97.78,29.89c-.09-2.5-.77-4.61-1.87-6.05h-2.21c-.18,0-.34,0-.52-.04-.12.4-.3.77-.53,1.17.56-.13.98-.18,1.26-.18h.15c-1.32,1.46-2.01,3.14-2.01,4.96v.14h1.52c-.14-.73-.05-1.28.05-1.72l1.33.67,1.27-.61c.05.42.13.99-.04,1.67h1.6ZM94.97,27.68l-1.04-.53c.12-.32.53-1.45,1.3-2.33.61.9.83,2.32.83,2.32l-1.09.54Z"/>
    <path class="cls-1" d="M120.99,29.89c-.09-2.5-.77-4.61-1.87-6.05h-2.21c-.17,0-.34,0-.52-.04-.12.4-.3.77-.53,1.17.56-.13.98-.18,1.26-.18h.15c-1.32,1.46-2.01,3.14-2.01,4.96v.14h1.52c-.14-.73-.05-1.28.05-1.72l1.33.67,1.27-.61c.05.42.12.99-.04,1.67h1.6ZM118.18,27.68l-1.04-.53c.12-.32.53-1.45,1.3-2.33.6.9.83,2.32.83,2.32l-1.09.54Z"/>
    <path class="cls-1" d="M146.09,29.89c-.09-2.5-.77-4.61-1.87-6.05h-2.21c-.18,0-.34,0-.52-.04-.12.4-.3.77-.53,1.17.56-.13.98-.18,1.26-.18h.15c-1.32,1.46-2.01,3.14-2.01,4.96v.14h1.52c-.14-.73-.05-1.28.05-1.72l1.33.67,1.27-.61c.05.42.13.99-.04,1.67h1.59ZM143.28,27.68l-1.04-.53c.12-.32.53-1.45,1.3-2.33.61.9.83,2.32.83,2.32l-1.09.54Z"/>
    <path class="cls-1" d="M102.65,35.12c-1.99,0-3.07,1.1-3.07,3.12s1.08,3.13,3.07,3.13,3.07-1.11,3.07-3.13-1.08-3.12-3.07-3.12ZM102.65,40.22c-1.08,0-1.67-.69-1.67-1.98s.59-1.97,1.67-1.97,1.67.68,1.67,1.97-.59,1.98-1.67,1.98Z"/>
    <path class="cls-1" d="M66.6,35.12c-1.99,0-3.07,1.1-3.07,3.12s1.08,3.13,3.07,3.13,3.07-1.11,3.07-3.13-1.08-3.12-3.07-3.12ZM66.6,40.22c-1.08,0-1.67-.69-1.67-1.98s.59-1.97,1.67-1.97,1.66.68,1.66,1.97-.59,1.98-1.66,1.98Z"/>
    <path class="cls-1" d="M126.67,39.49c0,.99-.87,1.84-2.41,1.84-1.07,0-1.78-.22-1.78-.59v-.03l.1-1.12c.45.43,1.1.62,1.71.62.56,0,.89-.32.89-.65,0-.9-2.52-1.1-2.52-2.77,0-.89.86-1.69,2.24-1.69.93,0,1.6.19,1.6.42,0,.02-.02.09-.05.18l-.23.82c-.47-.32-1.05-.38-1.47-.38-.45,0-.66.16-.71.43-.06.35.33.56.9.9.93.54,1.71.65,1.72,2Z"/>
    <path class="cls-1" d="M116,35.22c-.21.23-.44.57-.67,1.01l-2.56,5.14h-.24s-2.09-3.15-2.44-5.2h-.03c-.28,0-.7.04-1.26.18.23-.4.4-.77.52-1.17.18.03.34.03.52.03h1.71s-.68.76,1.19,3.8l1.36-3.31c.09-.19.13-.35.13-.48h1.77Z"/>
    <path class="cls-1" d="M129.01,38.25c0,1.23.68,1.92,1.74,1.92.67,0,1.31-.25,1.72-.67v1.12c0,.15,0,.25-.09.33-.12.13-.79.41-1.73.41-1.94,0-3.06-1.13-3.06-3.1s1.13-3.15,3.01-3.15c1.07,0,1.94.32,1.94.52,0,.02-.02.06-.03.12l-.32,1c-.42-.32-.93-.49-1.43-.49-1.09,0-1.75.72-1.75,1.98Z"/>
    <path class="cls-1" d="M136.46,35.12c-1.99,0-3.07,1.1-3.07,3.12s1.08,3.13,3.07,3.13,3.07-1.11,3.07-3.13-1.08-3.12-3.07-3.12ZM136.46,40.22c-1.08,0-1.67-.69-1.67-1.98s.6-1.97,1.67-1.97,1.67.68,1.67,1.97-.59,1.98-1.67,1.98Z"/>
    <path class="cls-1" d="M62.44,37.92s-.27.35-.25,1.17v1.86c-.54.25-1.35.42-2.03.42-1.99,0-3.19-1.18-3.19-3.15s1.27-3.1,3.26-3.1c.64,0,1.25.13,1.75.35.22.09.22.13.22.29,0,.03,0,.05-.03.1l-.28.87c-.39-.29-.99-.47-1.52-.47-1.21,0-1.91.75-1.91,2s.65,1.95,1.59,1.95c.4,0,.67-.07.79-.17l.04-.07v-.95s0-.16,0-.16h-.02c-.28,0-.7.05-1.26.18.23-.4.4-.77.53-1.17.17.04.34.04.52.04h1.79Z"/>
    <path class="cls-2" d="M74.81,38.01c.46-.27.72-.74.72-1.32,0-.88-.66-1.52-1.66-1.52-.46,0-1.25,0-1.43,0h-1.12c-.18,0-.34,0-.52-.04-.12.4-.3.77-.53,1.17.43-.1.78-.16,1.05-.18v4.17c0,.34-.05.65-.22.98.27-.02.46-.03.55-.03.47,0,1.15.04,1.57.04,1.65,0,2.5-.73,2.5-1.87,0-.62-.32-1.13-.91-1.41ZM72.64,36.3c.17-.11.56-.15.77-.15.51,0,.81.29.81.74,0,.52-.35.77-1.05.77-.04,0-.37,0-.53-.03v-1.33ZM73.32,40.29c-.12,0-.5,0-.67-.03v-1.74c.16,0,.54-.02.69-.02.66,0,1.02.33,1.02.89s-.39.89-1.04.89Z"/>
    <path class="cls-2" d="M98.22,40.42c0,.3.03.59.07.85h-1.29l-3.12-4.3v3.17c0,.46.05.83.24,1.14h-1.84c.19-.29.26-.66.26-1.14v-3.76c0-.07,0-.13,0-.19-.26.02-.61.08-1.03.17.23-.4.4-.77.53-1.17.17.04.34.04.52.04h1.4l2.94,4.05v-2.9c0-.5-.08-.88-.25-1.15h1.84c-.19.3-.25.67-.25,1.15v4.05Z"/>
    <path class="cls-2" d="M84.76,40.07l-.17.83c-.07.36-.11.38-.53.38-.32,0-1.16-.05-2.06-.05-.33,0-.75,0-1.23.03.19-.39.24-.75.24-1.14v-3.8c0-.05,0-.1,0-.15-.25.02-.57.08-.95.17.23-.4.4-.77.53-1.17.17.04.34.04.52.04h3c.29,0,.4.03.42.26l-.26.91c-.24-.1-.51-.1-.82-.1h-1.06v1.29h1.33c.2,0,.39,0,.57-.05l-.23,1.13c-.19-.03-.38-.04-.54-.04h-1.13v1.59h1.52c.4,0,.69-.04.86-.12Z"/>
    <path class="cls-1" d="M78.85,40.13c0,.5.07.87.25,1.14h-1.91c.18-.28.25-.65.25-1.14v-3.76c0-.49-.07-.87-.25-1.15h1.91c-.18.27-.25.65-.25,1.15v3.76Z"/>
    <path class="cls-1" d="M89.54,38.6c.55-.29.86-.85.86-1.55,0-1.1-.72-1.82-2.15-1.82-.18,0-.37,0-.54,0h-1.29c-.18,0-.34,0-.52-.03-.12.4-.3.77-.53,1.17.38-.09.7-.14.96-.17,0,.06,0,.11,0,.18v3.77c0,.48-.06.85-.25,1.14h1.81c-.17-.25-.26-.64-.26-1.14v-1.2h.18c.18,0,.14,0,.3-.02l.84,1.32c.51.97,2.13,1.68,2.74,1.4-1.14-.68-2.15-3.04-2.15-3.04ZM88.01,37.92h-.24s-.06,0-.15-.02v-1.67c.14-.02.29-.03.44-.03.7,0,1.07.31,1.07.84s-.38.88-1.12.88Z"/>
    <path class="cls-1" d="M121.62,41.27c-.09-2.5-.77-4.61-1.87-6.05h-2.21c-.17,0-.34,0-.52-.03-.12.39-.3.77-.53,1.16.56-.13.98-.18,1.26-.18h.15c-1.32,1.46-2.01,3.14-2.01,4.96v.14h1.52c-.14-.73-.05-1.28.05-1.72l1.33.67,1.27-.62c.05.42.12.99-.04,1.67h1.6ZM118.81,39.06l-1.04-.53c.12-.32.53-1.45,1.3-2.33.6.9.83,2.32.83,2.32l-1.09.55Z"/>
    <path class="cls-1" d="M48,32.83h-.44c.05-.13.06-.33.06-.56h.38c.01.22.01.41,0,.56Z"/>
    <path class="cls-1" d="M155.99,32.27v.56H52.08c.06-.17.1-.35.11-.56h103.8Z"/>
    <path class="cls-1" d="M46.63,40.24s-.3.09-.46,1.05c0,0-.58.17-1.06.81v-4.68c.24-.18.63-.4.97-.21,0,0,.31.46.68.28,0,0,.24.39-.03.74,0,0,.2.13.33.44,0,0-.69.42-.43,1.57Z"/>
    <path class="cls-1" d="M50.7,38.63s.24,1.25-1.06,1.11c0,0-.06.73-.66.62,0,0-1.6-.82-1.95,1.34,0,0-.06.19.27.06l.79-.59s-.09-.43.42-.57l.07.26s.59-.21.87-.08c0,0,.56.15.23.79,0,0-.29.29-.79.21,0,0-.26-.03-.11.26-.09-.07-.53.09-.59-.41,0,0-.45.05-.56.39,0,0,.67.43.12,1.06,0,0,.3.7-.24,1,0,0,.01.03.02.09.03.18,0,.59-.61.83,0,0-.24.79-1.19.91-.16.02-.33.02-.53,0-.03,0-.06,0-.09-.01v-2.4c.2-.13.51-.3.73-.26,0,0-.28-1.02.91-1.28,0,0-.25-.71.54-1.68,0,0-.46-.55.26-1.21,0,0,.49-1.2,1.25-.91,0,0,.06-1.28,1.2-.54,0,0,.72-1.1,1.05-.08,0,0,0,.12.24.24.06.14.3.67-.57.86Z"/>
    <path class="cls-1" d="M36.98,15.7c-.11.19-.13.47-.13.67h-3.04c-.55-.67-.27-1.09-.27-1.09-1.04-.19-.62-1.28-.62-1.28-.85-.73,0-1.43.78-.82.81-.72,1.31.69,1.31.69,1.08-.48,1.08,1.1,1.08,1.1l.55-.09c.11.56.34.83.34.83Z"/>
    <path class="cls-1" d="M43.5,16.36h-4.79l-.05-.13c.79-.31,1.04-1.18,1.04-1.18l.66.13c.93-.89,1.62.19,1.62.19.86-.52,1.34.4,1.51.99Z"/>
    <path class="cls-1" d="M39,14.94s-.42.88-.86.79c-.07.24-.11.47-.14.63h-.42c.03-.32.09-.57.14-.74v-.03c-.18-.12-.42-.42-.32-1.06l.26.07.09-.38s.17-.76.73-.59c0,0,.55.03.35.86l-.09.38.25.06Z"/>
    <path class="cls-1" d="M48,32.83h-.44c.05-.13.06-.33.06-.56h.38c.01.22.01.41,0,.56Z"/>
    <path class="cls-1" d="M16.38,37.42v4.69c-.48-.65-1.07-.82-1.07-.82-.16-.95-.46-1.05-.46-1.05.26-1.15-.43-1.57-.43-1.57.13-.31.33-.44.33-.44-.26-.35-.03-.74-.03-.74.37.18.68-.28.68-.28.35-.19.75.04.99.22Z"/>
    <path class="cls-1" d="M16.38,43.5v2.39c-1.48.22-1.83-.9-1.83-.9-.8-.31-.59-.91-.59-.91-.55-.3-.24-1-.24-1-.55-.63.12-1.06.12-1.06-.1-.34-.56-.39-.56-.39-.07.49-.5.34-.59.41.15-.29-.1-.26-.1-.26-.5.09-.79-.21-.79-.21-.33-.64.23-.79.23-.79.28-.14.87.08.87.08l.07-.26c.51.13.43.57.43.57l.79.59c.33.13.27-.06.27-.06-.35-2.16-1.95-1.34-1.95-1.34-.6.1-.66-.62-.66-.62-1.29.13-1.06-1.11-1.06-1.11-.87-.19-.62-.72-.56-.86.23-.11.23-.24.23-.24.33-1.03,1.05.08,1.05.08,1.14-.75,1.2.54,1.2.54.76-.28,1.25.91,1.25.91.72.66.26,1.21.26,1.21.79.97.54,1.68.54,1.68,1.19.26.91,1.28.91,1.28.22-.04.54.14.74.27Z"/>
    <path class="cls-1" d="M28.56,13.99s.41,1.1-.62,1.28c0,0,.27.43-.27,1.09h-3.04c0-.2-.02-.48-.13-.67,0,0,.23-.26.34-.83l.55.09s.01-1.59,1.09-1.1c0,0,.5-1.41,1.31-.69.78-.61,1.63.09.78.82Z"/>
    <path class="cls-1" d="M22.81,16.23l-.05.13h-4.79c.17-.58.65-1.5,1.51-.99,0,0,.69-1.08,1.62-.19l.66-.13s.24.87,1.04,1.18Z"/>
    <path class="cls-1" d="M23.76,15.62c.05.17.1.41.14.74h-.42c-.02-.16-.06-.39-.14-.63-.44.09-.86-.79-.86-.79l.25-.06-.09-.38c-.19-.83.35-.86.35-.86.56-.17.73.59.73.59l.09.38.26-.07c.1.64-.14.93-.31,1.06v.03Z"/>
    <path class="cls-1" d="M14.08,30.81s-.44,1.88-.09,2.14c0,0,.05-.25.71-.61,0,0-.3-.31.54-.8,0,0,.08-1.01,1.15-1.13v5.05s0,0,0,0c-.05.56-.4.91-.81.91-.39.59-1.14.25-1.14.25,0,0-.37.18-.59,1.28,0,0-.19-.2-.28-.15,0,0,.08-.53-.77-1.11-.18.3-.9.07-.9.07l.1-.17-.27-.15c-.57-.33-.3-.66-.3-.66.2-.41.73-.11.73-.11l.26.15.1-.18c.63.43.39.83.39.83l.7.43s.23-1.2-1-2.19c0,0-1.03.14-1.4-.64,0,0,.36-.48-.9-.98,0,0-.52-.66-.23-1.25,0,0-.99-.4-.58-1.72,0,0-.44-.96.49-.91,0,0,.62-.4.93.48,0,0,.75.1.72.8,1.1.14,1.03,1.3,1.03,1.3,0,0-.28.25-.01.48.56.59.01,1.41.01,1.41,0,0,.63.6.37.98,0,0,.76.53.96,2.04,0,0,.35-.39.4-.75,0,0-.43-.5-.57-.93,0,0,0-.56-.13-.74,0,0-.29-.4,0-.64,0,0-.3-.32-.15-1.74,0,0,.23-1.09-.24-1.71,0,0-.27-.31-.53-.58,0,0-.43.14-.89-.29l.12-.15s-.33-.42-.37-.54c0,0-.3-.9.58-.72,0,0,.33.25.57.61l.24-.15s.38.45.04,1l.54.62s.47-.26.06-1.75c0,0-.49-1.48-1.38-1.21l-.45-.6s-.48-.06-.55-.62c0,0-.95-.45-.43-1.4,0,0-.47-.98.56-.69,0,0,.78-.35.51.52,0,0,.06.52.47.85,0,0-.04,1.08.79,1.55,0,0,.54.5.66,1.1,0,0,.32-.02.34-1.38,0,0-1.28-.25-1.06-1.49,0,0-.74-.35-.34-1.3,0,0-.48-.57-.06-1.27,0,0-.4-.73.26-1.19,0,0-.1-.78.55-.72,0,0,.61-.01.59.92,0,0,.34.13.3.51,0,0,.92-.17.6,1.34,0,0,.81.77.15,1.43,0,0,.6,1.19-.68,1.69,0,0,.12.89-.21,1.57,0,0,0,.13.55-.13,0,0,.03-1.51,1.43-1.98l-.3-.98s.59-.5-.13-1.72c0,0,.12-1.32-.83-1.79,0,0,.04-.62-.49-.92,0,0,.04-.38.7-.68,0,0-.21-1.04,1.19-1.57v11.06c-.16.17-.38.35-.51.29,0,0-.21,1.02-1.02.9,0,0-.23.63-.77.53Z"/>
    <g>
      <path class="cls-1" d="M52.01,30.08c.41,1.32-.59,1.72-.59,1.72.08.16.1.32.09.48-.02.22-.11.42-.18.56-.07.13-.13.2-.13.2-1.27.5-.91.98-.91.98-.37.78-1.4.64-1.4.64-1.23.99-1,2.19-1,2.19l.7-.43s-.24-.4.39-.83l.1.18.27-.15s.53-.31.73.11c0,0,.27.33-.3.66l-.26.15.1.17s-.72.23-.9-.07c-.85.59-.77,1.11-.77,1.11-.09-.05-.28.15-.28.15-.23-1.1-.59-1.28-.59-1.28,0,0-.75.35-1.14-.25-.39,0-.73-.33-.8-.85v-5.12c1.05.13,1.13,1.13,1.13,1.13.61.35.62.62.58.73-.01.05-.04.07-.04.07.39.21.56.39.64.49.06.08.06.12.06.12.03-.03.06-.06.08-.12h.44c-.03.61-.19.77-.19.77.29.24,0,.64,0,.64-.13.17-.13.74-.13.74-.14.43-.56.93-.56.93.05.37.4.75.4.75.21-1.51.96-2.04.96-2.04-.27-.38.37-.98.37-.98,0,0-.26-.38-.24-.81,0-.19.07-.38.22-.56,0-.01.02-.02.03-.04.27-.23-.01-.48-.01-.48,0,0-.07-1.16,1.03-1.3-.04-.7.72-.8.72-.8.3-.88.93-.48.93-.48.93-.06.49.91.49.91Z"/>
      <path class="cls-1" d="M50.23,25.77c-.06.57-.55.62-.55.62l-.45.6c-.89-.27-1.38,1.21-1.38,1.21-.41,1.5.06,1.75.06,1.75l.54-.62c-.34-.55.04-1,.04-1l.24.15c.24-.36.56-.61.56-.61.89-.18.59.72.59.72-.04.12-.37.54-.37.54l.12.15c-.45.43-.89.29-.89.29-.25.26-.53.58-.53.58-.47.61-.24,1.71-.24,1.71.02.15.03.28.03.4h-.38c-.03-.63-.22-1.46-.22-1.46-.55.11-.77-.53-.77-.53-.81.11-1.02-.9-1.02-.9-.13.06-.34-.11-.5-.27v-11.07c.82.32,1.08.8,1.16,1.15.06.24.02.42.02.42.66.3.7.68.7.68-.3.17-.41.44-.46.64-.04.16-.03.28-.03.28-.95.47-.83,1.79-.83,1.79-.73,1.22-.13,1.72-.13,1.72l-.3.98c1.41.47,1.43,1.98,1.43,1.98.55.26.55.13.55.13-.33-.68-.21-1.57-.21-1.57-1.28-.5-.68-1.69-.68-1.69-.66-.65.15-1.43.15-1.43-.31-1.51.6-1.34.6-1.34-.04-.38.3-.51.3-.51,0-.14,0-.26.03-.36.11-.56.53-.56.56-.56.47-.05.55.34.55.56,0,.09,0,.15,0,.15.66.46.26,1.19.26,1.19.43.7-.06,1.27-.06,1.27.4.95-.34,1.3-.34,1.3.23,1.24-1.06,1.49-1.06,1.49.02,1.36.34,1.38.34,1.38.12-.59.66-1.1.66-1.1.83-.47.79-1.55.79-1.55.41-.33.47-.85.47-.85-.26-.87.51-.52.51-.52,1.04-.29.57.69.57.69.51.94-.44,1.4-.44,1.4Z"/>
    </g>
    <path class="cls-1" d="M31.08,17.06v15.16h13.33v-15.16h-13.33ZM36.88,17.58l.32-.32.55.54.55-.54.32.32-.54.55.54.55-.32.32-.55-.55-.55.55-.32-.32.55-.55-.55-.55ZM32.97,31.67l-.32.32-.55-.55-.55.55-.32-.32.55-.55-.55-.55.32-.32.55.55.55-.55.32.32-.54.55.54.55ZM32.97,25.17l-.32.32-.55-.55-.55.55-.32-.32.55-.55-.55-.55.32-.32.55.55.55-.55.32.32-.54.55.54.55ZM32.97,18.67l-.32.32-.55-.55-.55.55-.32-.32.55-.55-.55-.55.32-.32.55.54.55-.54.32.32-.54.55.54.55ZM38.62,31.67l-.32.32-.55-.55-.55.55-.32-.32.55-.55-.55-.55.32-.32.55.55.55-.55.32.32-.54.55.54.55ZM42.4,30.07h-9.29v-10.87h9.29v10.87ZM44.26,31.67l-.32.32-.55-.55-.55.55-.32-.32.55-.55-.55-.55.32-.32.55.55.55-.55.32.32-.55.55.55.55ZM44.26,25.17l-.32.32-.55-.55-.55.55-.32-.32.55-.55-.55-.55.32-.32.55.55.55-.55.32.32-.55.55.55.55ZM44.26,18.67l-.32.32-.55-.55-.55.55-.32-.32.55-.55-.55-.55.32-.32.55.54.55-.54.32.32-.55.55.55.55Z"/>
    <path class="cls-1" d="M17.04,17.06v11.93l.99-.91h.05s0-1.98,0-1.98l.29-.42v-1.33l-.4-.3v-1.45h.36v.33h.39v-.33h.33v.93h.52v-1.56h.47v.33h.42v-.33h.47v1.52h.52v-.89h.34v.33h.39v-.33h.36v1.45l-.4.3v1.33l.36.42v1.98h.07s.18.19.18.19v.02s.27-.3.27-.3l-.07-.1.2-.92h.14s.08-1.59.08-1.59l-.16-.08.12-2.24.47-.6s.08-.19.34-.25c0,0,.35-.15.56.19,0,0,.31-.03.36.26,0,0,.25-.05.3.29,0,0,.36-.02.26.31l-.17.23s-.17.11,0,.27l-.06.18s-.08.23-.44.22c0,0-.26-.03-.24.25l.19,1h-.24l.26,2.3.13.09-.07.69s.03.12-.11.17l-.71.75-.09-.04-.18.18.66.73,5.82.38v-13.62h-13.36ZM22.92,23.17l-.17-.15.52-.57-4.43-4.52-.15-.27.28.14,4.81,4.1.55-.6.17.17-1.58,1.7ZM29.5,28.79h.24v1.78l-.45-.31-.41.3v-1.46s-.36.15-.55-.3v-.92l-.45.66.02.31-.91,1.53-.25-.47-.46.08.77-1.33s-.44-.21-.26-.57l.78-1.27-.43-.47-.86.63v-.54h-.59l.9-.79-1.13-1.46h.52l.08-.54.68.88s.48.47.75.02c0,0,.17-.41-.25-.58l-.5-.04v-.53h.63v-.23h1.67l-.43.9h.34l-.35.94h.3l-.32.91.59.79v-2.16l.32-.32.47.4-.47.41v3.77Z"/>
    <path class="cls-1" d="M37,20.56v.9c.31-.23.84-.47,1.43-.02v-.88h-1.43ZM37,20.56v.9c.31-.23.84-.47,1.43-.02v-.88h-1.43ZM35.06,23.43h-.93v1.43h.92c-.23-.28-.46-.79.01-1.43ZM37,20.56v.9c.31-.23.84-.47,1.43-.02v-.88h-1.43ZM37,20.56v.9c.31-.23.84-.47,1.43-.02v-.88h-1.43ZM35.06,23.43h-.93v1.43h.92c-.23-.28-.46-.79.01-1.43ZM35.06,23.43h-.93v1.43h.92c-.23-.28-.46-.79.01-1.43ZM37,20.56v.9c.31-.23.84-.47,1.43-.02v-.88h-1.43ZM37,20.56v.9c.31-.23.84-.47,1.43-.02v-.88h-1.43ZM35.06,23.43h-.93v1.43h.92c-.23-.28-.46-.79.01-1.43ZM35.06,23.43h-.93v1.43h.92c-.23-.28-.46-.79.01-1.43ZM37,20.56v.9c.31-.23.84-.47,1.43-.02v-.88h-1.43ZM35.06,23.43h-.93v1.43h.92c-.23-.28-.46-.79.01-1.43ZM37,20.56v.9c.31-.23.84-.47,1.43-.02v-.88h-1.43ZM37,20.56v.9c.31-.23.84-.47,1.43-.02v-.88h-1.43ZM35.06,23.43h-.93v1.43h.92c-.23-.28-.46-.79.01-1.43ZM35.06,23.43h-.93v1.43h.92c-.23-.28-.46-.79.01-1.43ZM37,20.56v.9c.31-.23.84-.47,1.43-.02v-.88h-1.43ZM37,20.56v.9c.31-.23.84-.47,1.43-.02v-.88h-1.43ZM35.06,23.43h-.93v1.43h.92c-.23-.28-.46-.79.01-1.43ZM35.06,23.43h-.93v1.43h.92c-.23-.28-.46-.79.01-1.43ZM37,20.56v.9c.31-.23.84-.47,1.43-.02v-.88h-1.43ZM37,20.56v.9c.31-.23.84-.47,1.43-.02v-.88h-1.43ZM35.06,23.43h-.93v1.43h.92c-.23-.28-.46-.79.01-1.43Z"/>
    <g>
      <path class="cls-1" d="M23.29,41.59v1.41c-.25.05-.5.14-.76.29,0,0-.7.58-1.45-.06,0,0-.24-.13-.6-.22v.02s0-1.44,0-1.44c0,0,1.18-.39,1.4-1.4,0,0,.21.96,1.42,1.4Z"/>
      <path class="cls-1" d="M27.14,41.59v1.39c-.18.05-.37.12-.55.23,0,0-.79.73-1.6,0,0,0-.23-.13-.59-.21v-1.42s1.09-.35,1.37-1.27c.11.28.43.93,1.37,1.27Z"/>
      <polygon class="cls-1" points="27.15 42.98 27.14 43 27.14 42.99 27.15 42.98"/>
      <path class="cls-1" d="M30.41,32.87v10.36c-.31.2-.86.42-1.45-.02,0,0-.27-.17-.7-.26v-1.36s1.18-.39,1.4-1.4c0,0,.63-2.52-1-4.66,0,0-.94-1.66-1.92,0,0,0-.63.84-.95,2.11-.15-.66-.46-1.43-.98-2.11,0,0-.94-1.66-1.92,0,0,0-.69.9-1,2.24-.14-.71-.44-1.5-1-2.24,0,0-.94-1.66-1.92,0,0,0-1.61,2.11-1,4.66,0,0,.21.96,1.42,1.4v1.44h0c-.19.04-.38.12-.58.24,0,0-.64.55-1.21.19l-.52-.2v-10.39h13.35Z"/>
      <path class="cls-1" d="M30.41,44.88v1.36c-.31.2-.86.4-1.45-.04,0,0-1.13-.7-2.36,0,0,0-.79.73-1.6,0,0,0-1.19-.66-2.45.08,0,0-.7.58-1.45-.06,0,0-1.17-.66-2.3.04,0,0-.64.55-1.21.19l-.51-.33h0v-1.19l.52.2c.57.35,1.21-.19,1.21-.19,1.13-.7,2.3-.04,2.3-.04.75.64,1.45.06,1.45.06,1.26-.74,2.45-.08,2.45-.08.81.73,1.6,0,1.6,0,1.23-.7,2.36,0,2.36,0,.59.44,1.14.22,1.45,0Z"/>
      <path class="cls-1" d="M30.41,47.86v1.34c-.31.2-.86.42-1.45-.02,0,0-1.13-.7-2.36,0,0,0-.79.74-1.6,0,0,0-1.19-.66-2.45.08,0,0-.7.59-1.45-.06,0,0-1.17-.66-2.3.04h-.02c-.39-.27-.69-.62-.93-.98.47.02.94-.34.94-.34,1.13-.7,2.3-.04,2.3-.04.75.64,1.45.06,1.45.06,1.26-.73,2.45-.08,2.45-.08.81.74,1.6,0,1.6,0,1.23-.7,2.36,0,2.36,0,.59.44,1.14.22,1.45,0Z"/>
      <path class="cls-1" d="M30.41,50.84v1.73c-.84-.88-2.2-1.46-3.63-1.85,1.07-.43,2.18.11,2.18.11.59.44,1.14.22,1.45,0Z"/>
    </g>
    <g>
      <path class="cls-1" d="M32.31,32.87v18.79c-.47.26-.89.56-1.22.92v-19.7h1.22Z"/>
      <path class="cls-1" d="M33.64,32.87v18.19c-.39.14-.77.3-1.11.48v-18.67h1.11Z"/>
      <path class="cls-1" d="M34.97,32.87v17.79c-.38.09-.75.2-1.11.33v-18.11h1.11Z"/>
      <path class="cls-1" d="M36.3,32.87v17.5c-.37.06-.75.14-1.12.23v-17.74h1.12Z"/>
      <path class="cls-1" d="M37.62,32.87v17.31c-.36.04-.73.1-1.11.16v-17.47h1.11Z"/>
      <path class="cls-1" d="M38.95,32.87v17.18c-.34.02-.72.06-1.11.11v-17.28h1.11Z"/>
      <path class="cls-1" d="M40.28,32.87v17.11c-.29,0-.67.03-1.12.06v-17.16h1.12Z"/>
      <path class="cls-1" d="M41.61,32.87v16.94c-.21.07-.43.12-.67.15,0,0-.16,0-.44,0v-17.1h1.11Z"/>
      <path class="cls-1" d="M42.93,32.87v16.2c-.31.27-.67.5-1.11.67v-16.87h1.11Z"/>
      <path class="cls-1" d="M44.42,32.87v13.32s-.16,1.55-1.27,2.68v-16h1.27Z"/>
    </g>
    <rect class="cls-2" x="19.35" y="24.6" width=".5" height=".74"/>
    <rect class="cls-2" x="20.66" y="24.6" width=".5" height=".74"/>
    <g>
      <path class="cls-1" d="M35.05,24.86h-.92v-1.43h.93c-.47.64-.24,1.15-.01,1.43Z"/>
      <path class="cls-1" d="M38.43,20.56v.88c-.59-.45-1.13-.21-1.43.02v-.9h1.43Z"/>
    </g>
    <g>
      <path class="cls-1" d="M41.3,23.43v1.43h-.82c.42-.61.19-1.13-.03-1.43h.85Z"/>
      <path class="cls-1" d="M42.23,19.37v8.9h-3.54c-.27-.2-.32-.45-.32-.45v-1.02c-.02-.17.26-.26.26-.26h.56s.18.02.18.02c1.02-.25.81-1.34.81-1.34.06-.06.12-.12.17-.17h1.13v-1.78h-1.18c-.07-.07-.12-.11-.12-.11.11-1.03-.52-1.33-.99-1.41-.26-.05-.46-.02-.46-.02-.04-.05-.08-.09-.12-.13v-1.2h-1.78v1.22c-.07.06-.1.11-.1.11-1.62.02-1.42,1.43-1.42,1.43-.04.04-.07.07-.1.11h-1.25v1.78h1.26c.06.05.09.08.09.08-.02,1.38.91,1.43.91,1.43h.56l.02-.02c.23.06.31.26.31.26v1.02c0,.22-.19.38-.3.45h-3.53v-8.9h8.94Z"/>
    </g>
    <path class="cls-1" d="M28.4,52.03c-.33.51-.85.94-1.32.92-.28,0-.76-.2-.86-.53-.14-.41.17-.78.4-1.05.69.18,1.27.41,1.77.65h0Z"/>
    <path class="cls-1" d="M25.85,51.2c-.34.9-.72,1.06-.97,1.25-.32.23-.87.41-1.26.18-.19-.13-.36-.41-.3-.68.02-.39.38-.76.64-1.08.69.11,1.32.23,1.89.32Z"/>
    <path class="cls-1" d="M35.27,52.42c-.09.33-.57.53-.86.53-.47.02-.99-.41-1.32-.92h.01c.5-.26,1.09-.48,1.78-.66.24.27.53.63.39,1.04Z"/>
    <path class="cls-1" d="M37.87,52.64c-.4.24-.95.05-1.27-.18-.25-.2-.61-.36-.96-1.26h.01c.56-.09,1.18-.21,1.87-.32.26.32.62.69.64,1.08.06.26-.11.55-.3.68Z"/>
    <path class="cls-1" d="M23.29,41.59v1.41c-.25.05-.5.14-.76.29,0,0-.7.58-1.45-.06,0,0-.24-.13-.6-.22v.02s0-1.44,0-1.44c0,0,1.18-.39,1.4-1.4,0,0,.21.96,1.42,1.4Z"/>
    <g>
      <path class="cls-1" d="M27.14,41.59v1.39c-.18.05-.37.12-.55.23,0,0-.79.73-1.6,0,0,0-.23-.13-.59-.21v-1.42s1.09-.35,1.37-1.27c.11.28.43.93,1.37,1.27Z"/>
      <polygon class="cls-1" points="27.15 42.98 27.14 43 27.14 42.99 27.15 42.98"/>
    </g>
  </g>
</svg>