<?xml version="1.0" encoding="UTF-8"?>
<svg id="Capa_1" xmlns="http://www.w3.org/2000/svg" version="1.1" viewBox="0 0 136 83.8">
  <!-- Generator: Adobe Illustrator 30.2.1, SVG Export Plug-In . SVG Version: 2.1.1 Build 1)  -->
  <defs>
    <style>
      .st0 {
        fill: #fff;
      }
    </style>
  </defs>
  <g>
    <path class="st0" d="M18.7,46.5h4.5v11.8h-3v-9.1l-2.5,9.1h-2.6l-2.5-9.1v9.1h-2.7v-11.8h4.4l2.2,8.2,2.2-8.2Z"/>
    <path class="st0" d="M24.8,53.7h0c0-3,2-4.7,4.7-4.7s4.7,1.7,4.7,4.6h0c0,3.5-2.3,4.9-4.7,4.9s-4.7-1.4-4.7-4.8ZM31.2,53.9v-.7c0-1.6-.7-2.3-1.7-2.3s-1.7.8-1.7,2.3v.7c0,2.1.8,2.7,1.7,2.7s1.7-.6,1.7-2.7Z"/>
    <path class="st0" d="M35.6,49.2h2.3s.5.9.5,2.1h0c.4-1.3,1.5-2.3,3.1-2.3s2.9,1.1,2.9,3.3v6h-2.9v-5.6c0-1-.4-1.5-1.3-1.5s-1.7.8-1.7,2.3v4.8h-2.9v-9.1Z"/>
    <path class="st0" d="M45.9,53.7h0c0-3.1,1.6-4.7,3.8-4.7s2.5,1,2.8,1.9v-5.1h2.9v12.4h-2.3s-.4-.8-.5-1.9c-.5,1.1-1.2,2.1-3,2.1s-3.6-2-3.6-4.7ZM52.4,54v-.3c0-1.8-.8-2.6-1.8-2.6s-1.8.8-1.8,2.3v.6c0,1.5.6,2.5,1.8,2.5s1.8-1,1.8-2.5Z"/>
    <path class="st0" d="M57.1,49.2h2.3s.5,1,.5,2.5v.4c.4-2.4,1.5-3,2.5-3s.7.2.9.5v2.2c-2.1-.1-3.3.6-3.3,2.9v3.6h-2.9v-9.1Z"/>
    <path class="st0" d="M64,56.1h0c0-1.9,1.6-2.3,3.5-2.7,1.2-.3,1.7-.5,1.7-1h0c0-.6-.4-1-1.7-1s-2.5.5-2.9.8v-1.8c.4-.6,1.5-1.4,3.7-1.4s3.9,1.4,3.9,3.8v2.9c0,2.1.2,2.5.2,2.5h-2.6s-.4-.6-.4-1.6c-.4,1.1-1.3,1.8-2.7,1.8s-2.6-1-2.6-2.5ZM69.2,55v-1.1c-.3.2-.6.4-1,.6-.8.3-1.2.6-1.2,1.3h0c0,.7.4,1.1,1,1.1s1.3-.6,1.3-1.8Z"/>
    <path class="st0" d="M74.2,60v-2.1c.6.5,1.4.9,3.1.9s2.8-1,2.8-2.4v-.6c-.3.9-1.2,1.7-2.9,1.7-2.4,0-3.7-1.6-3.7-4.2h0c0-2.7,1.6-4.4,3.8-4.4s2.5.7,3,2c.2-1,.6-1.8.6-1.8h2.1v7.1c0,3.1-1.7,4.9-5.1,4.9s-3.2-.6-3.6-1.1ZM80.1,53.5v-.2c0-1.4-.8-2.3-1.8-2.3s-1.8.8-1.8,2.1v.3c0,1.5.6,2.4,1.8,2.4s1.8-.9,1.8-2.4Z"/>
    <path class="st0" d="M84.4,53.7h0c0-3,2-4.7,4.7-4.7s4.7,1.7,4.7,4.6h0c0,3.5-2.3,4.9-4.7,4.9s-4.7-1.4-4.7-4.8ZM90.8,53.9v-.7c0-1.6-.7-2.3-1.7-2.3s-1.7.8-1.7,2.3v.7c0,2.1.8,2.7,1.7,2.7s1.7-.6,1.7-2.7Z"/>
    <path class="st0" d="M95.2,49.2h2.3s.5.9.5,2.1h0c.4-1.3,1.5-2.3,3.1-2.3s2.9,1.1,2.9,3.3v6h-2.9v-5.6c0-1-.4-1.5-1.3-1.5s-1.7.8-1.7,2.3v4.8h-2.9v-9.1Z"/>
    <path class="st0" d="M9.9,65.3h3v7.2c0,1.7.5,2.5,2.2,2.5s2.2-.8,2.2-2.5v-7.3h3v6.7c0,3.9-1.9,5.4-5.2,5.4s-5.2-1.5-5.2-5.4v-6.7Z"/>
    <path class="st0" d="M22.2,68h2.3s.5.9.5,2.1h0c.4-1.3,1.5-2.3,3.1-2.3s2.9,1.1,2.9,3.3v6h-2.9v-5.6c0-1-.4-1.5-1.3-1.5s-1.7.8-1.7,2.3v4.8h-2.9v-9Z"/>
    <path class="st0" d="M32.7,65.8c0-.9.7-1.6,1.6-1.6s1.6.7,1.6,1.6-.7,1.6-1.6,1.6-1.6-.7-1.6-1.6ZM32.8,68h2.9v9h-2.9v-9Z"/>
    <path class="st0" d="M40.3,74.9c0,1.5-.5,2.2-.5,2.2h-2.2v-12.4h2.9v5.3c.3-1,1.2-2.2,2.9-2.2s3.7,1.9,3.7,4.6h0c0,3.2-1.6,4.9-3.8,4.9s-2.6-.9-3-2.4ZM44.1,72.7v-.6c0-1.3-.6-2.2-1.8-2.2s-1.8.9-1.8,2.3v.4c0,1.8.8,2.7,1.8,2.7s1.8-.9,1.8-2.7Z"/>
    <path class="st0" d="M51.2,73.1c.1,1.6,1,2,2.6,2s2-.3,2.6-.5v1.6c-.4.6-1.6,1.2-3.4,1.2-3,0-4.8-1.7-4.8-4.7h0c0-3,2-4.7,4.5-4.7s4.1,1.6,4.1,3.8-.1,1.1-.3,1.5h-5.4ZM51.2,71.8h3v-.2c0-1.4-.5-2-1.4-2s-1.6.7-1.6,2.2Z"/>
    <path class="st0" d="M58.2,68h2.3s.5,1,.5,2.5v.4c.4-2.4,1.5-3,2.5-3s.7.2.9.5v2.2c-2.1-.1-3.3.6-3.3,2.9v3.6h-2.9v-9Z"/>
    <path class="st0" d="M66.5,74.4v-4.5h-1.1v-1.5c1.5-.2,1.9-1,2.3-2.8h1.7v2.4h2.5v1.9h-2.5v3.9c0,1.1.4,1.5,1.4,1.5s.8,0,1.1-.2v1.3c-.3.5-1.1.9-2.4.9s-3-.7-3-2.9Z"/>
    <path class="st0" d="M73.1,76.4v-1.8c.7.4,1.8.8,3,.8s1.6-.3,1.6-.8-.2-.5-.6-.6c-.6-.2-1.9-.2-2.8-.6-.9-.5-1.2-1.3-1.2-2.3,0-2.3,1.9-3.1,3.8-3.1s2.3.3,2.9.8v1.8c-.7-.3-1.6-.6-2.8-.6s-1.4.3-1.4.8.2.5.6.6c.8.2,2.2.2,3,.7,1,.5,1.3,1.2,1.3,2.2,0,2.1-1.5,3.2-3.9,3.2s-2.7-.4-3.4-1Z"/>
    <path class="st0" d="M81.7,65.8c0-.9.7-1.6,1.6-1.6s1.6.7,1.6,1.6-.7,1.6-1.6,1.6-1.6-.7-1.6-1.6ZM81.8,68h2.9v9h-2.9v-9Z"/>
    <path class="st0" d="M87.1,74.4v-4.5h-1.1v-1.5c1.5-.2,1.9-1,2.3-2.8h1.7v2.4h2.5v1.9h-2.5v3.9c0,1.1.4,1.5,1.4,1.5s.8,0,1.1-.2v1.3c-.3.5-1.1.9-2.4.9s-3-.7-3-2.9Z"/>
    <path class="st0" d="M93.6,74.9h0c0-1.9,1.6-2.3,3.5-2.7,1.2-.3,1.7-.5,1.7-1h0c0-.6-.4-1-1.7-1s-2.5.5-2.9.8v-1.8c.4-.6,1.5-1.4,3.7-1.4s3.9,1.4,3.9,3.8v2.9c0,2.1.2,2.5.2,2.5h-2.6s-.4-.6-.4-1.6c-.4,1.1-1.3,1.8-2.7,1.8s-2.6-1-2.6-2.5ZM98.9,73.9v-1.1c-.3.2-.6.4-1,.6-.8.3-1.2.6-1.2,1.3h0c0,.7.4,1.1,1,1.1s1.3-.6,1.3-1.8Z"/>
    <path class="st0" d="M104,74.4v-4.5h-1.1v-1.5c1.5-.2,1.9-1,2.3-2.8h1.7v2.4h2.5v1.9h-2.5v3.9c0,1.1.4,1.5,1.4,1.5s.8,0,1.1-.2v1.3c-.3.5-1.1.9-2.4.9s-3-.7-3-2.9Z"/>
    <path class="st0" d="M113.3,73.1c.1,1.6,1,2,2.6,2s2-.3,2.6-.5v1.6c-.4.6-1.6,1.2-3.4,1.2-3,0-4.8-1.7-4.8-4.7h0c0-3,2-4.7,4.5-4.7s4.1,1.6,4.1,3.8-.1,1.1-.3,1.5h-5.4ZM113.3,71.8h3v-.2c0-1.4-.5-2-1.4-2s-1.6.7-1.6,2.2Z"/>
    <path class="st0" d="M120,74.9h0c0-1.9,1.6-2.3,3.5-2.7,1.2-.3,1.7-.5,1.7-1h0c0-.6-.4-1-1.7-1s-2.5.5-2.9.8v-1.8c.4-.6,1.5-1.4,3.7-1.4s3.9,1.4,3.9,3.8v2.9c0,2.1.2,2.5.2,2.5h-2.6s-.4-.6-.4-1.6c-.4,1.1-1.3,1.8-2.7,1.8s-2.6-1-2.6-2.5ZM125.2,73.9v-1.1c-.3.2-.6.4-1,.6-.8.3-1.2.6-1.2,1.3h0c0,.7.4,1.1,1,1.1s1.3-.6,1.3-1.8Z"/>
  </g>
  <path class="st0" d="M74.2,7.9c7.3,0,13.2,6,13.2,13.3v12.9c0,3.1-2.5,4.7-4.7,4.7s-4.7-1.6-4.7-4.7v-12.9c0-2.1-1.7-3.8-3.8-3.8s-3.8,1.7-3.8,3.8v4.3c0,7.4-5.9,13.3-13.2,13.3s-13.2-6-13.2-13.3v-4.3c0-2.1-1.7-3.8-3.8-3.8s-3.8,1.7-3.8,3.8v12.9c0,3.1-2.5,4.7-4.7,4.7s-4.7-1.6-4.7-4.7v-12.9c0-2.1-1.7-3.8-3.8-3.8s-3.8,1.7-3.8,3.8v12.9c0,3.1-2.5,4.7-4.7,4.7s-4.7-1.6-4.7-4.7v-12.9c0-7.4,5.9-13.3,13.2-13.3s6.2,1.2,8.5,3.1c2.3-2,5.3-3.1,8.5-3.1,7.3,0,13.2,6,13.2,13.3v4.3c0,2.1,1.7,3.8,3.8,3.8s3.8-1.7,3.8-3.8v-4.3c0-7.4,5.9-13.3,13.2-13.3"/>
</svg>