<?xml version="1.0" encoding="UTF-8"?>
<svg id="Capa_1" data-name="Capa 1" xmlns="http://www.w3.org/2000/svg" viewBox="0 0 282.49 83.82">
  <defs>
    <style>
      .cls-1 {
        fill-rule: evenodd;
      }

      .cls-1, .cls-2 {
        fill: #fff;
      }
    </style>
  </defs>
  <path class="cls-2" d="M61.88,52.69c0,.56-.09.76-.68.76h-2.35c-.43,0-.52-.15-.52-.56v-19.39c0-.52.16-.64.68-.64h2.11c.63,0,.76.12.76.76v19.07ZM62.23,27.09c0,1.16-.95,1.99-2.1,1.99s-2.15-.79-2.15-2.06.91-2.15,2.15-2.15c1.31,0,2.1.91,2.1,2.22ZM21.4,47.96c0,4.02-2.98,5.96-6.75,5.96-2.14,0-4.06-.51-5.6-2.06-.64-.63-1.24-1.51-1.24-2.42s.75-1.75,1.71-1.75c2.02,0,1.83,3.97,5.4,3.97,1.79,0,3.1-1.19,3.1-3.02,0-5.17-9.78-3.86-9.78-10.74,0-3.57,2.94-5.52,6.28-5.52,1.99,0,4.21.56,5.48,2.23.4.52.76,1.11.76,1.78,0,.84-.68,1.51-1.51,1.51-2.15,0-1.59-3.49-4.73-3.49-1.71,0-3.02,1.15-3.02,2.9,0,4.93,9.89,3.54,9.89,10.65ZM41.47,42.24c0,5.41-3.06,11.68-9.23,11.68-1.7,0-2.93-.48-4.28-1.43v9.62c0,.43-.17.67-.64.67h-2.15c-.51,0-.75-.16-.75-.72v-24.04c0-.96-.08-2.26.48-3.1,1.15-1.83,5.36-2.55,7.31-2.55,6.12,0,9.26,4.05,9.26,9.86ZM37.85,42.96c0-4.05-1.75-8.39-6.44-8.39-2.62,0-3.45,1.03-3.45,3.5v12.12c1.23.72,2.58,1.31,4.01,1.31,4.38,0,5.89-5.01,5.89-8.54ZM56.6,34.69c0,.87-.68,1.71-1.59,1.71-1.59,0-1.59-2.1-4.02-2.1-1.87,0-2.3,1.19-2.3,2.83v15.62c0,.4-.12.71-.6.71h-2.14c-.59,0-.84-.04-.84-.71v-16.58c0-.79,0-1.47.59-2.07,1.19-1.19,5.16-1.71,6.79-1.71s4.1.28,4.1,2.31Z"/>
  <path class="cls-1" d="M125.45,42.95c-20.76,0-41.53,11.99-62.29,35.97,20.76-23.98,20.76-47.96,0-71.92,20.76,23.97,41.52,35.96,62.29,35.96Z"/>
  <g>
    <path class="cls-2" d="M149.7,45.95c.63,0,1.15-.12,1.55-.35.41-.23.73-.52.96-.86.23-.34.39-.71.47-1.12.08-.41.13-.78.13-1.12s-.05-.71-.13-1.11c-.08-.41-.24-.78-.47-1.12s-.55-.63-.96-.86c-.41-.24-.93-.35-1.55-.35h-15.64c-.37,0-.69-.13-.95-.4-.26-.26-.39-.58-.39-.96s.13-.7.39-.96c.26-.26.57-.4.95-.4h16.22c.8,0,1.51.19,2.14.56.63.38,1.17.86,1.61,1.45.44.59.78,1.25,1.02,1.98.23.72.35,1.44.35,2.16s-.11,1.4-.33,2.12c-.22.72-.54,1.37-.96,1.95-.42.59-.92,1.07-1.52,1.46-.59.39-1.27.6-2.03.64h-16.49c-.37,0-.69-.13-.95-.4-.26-.26-.39-.58-.39-.96v-4.8c0-.37.13-.7.39-.96.26-.26.57-.39.95-.39s.68.13.94.39c.26.26.39.59.39.96v3.45h14.3Z"/>
    <path class="cls-2" d="M160.47,48.27c-.26.27-.58.4-.95.4s-.69-.13-.95-.4c-.26-.26-.39-.58-.39-.96v-9.6c0-.38.13-.7.39-.96.26-.26.57-.4.95-.4s.69.13.95.4c.26.26.39.58.39.96v9.6c0,.38-.13.7-.39.96Z"/>
    <path class="cls-2" d="M170.98,42.51c0-.37.13-.7.39-.96.26-.26.58-.39.95-.39h10.66c.46,0,.9.09,1.31.27.41.18.76.42,1.07.73.31.31.54.68.71,1.1.17.42.25.87.25,1.34v.62c0,.47-.08.92-.25,1.34-.17.42-.4.79-.71,1.1-.31.31-.66.56-1.07.74-.41.18-.84.27-1.31.27h-14.5c-.76,0-1.44-.19-2.03-.57-.59-.38-1.1-.86-1.51-1.45-.42-.59-.74-1.26-.96-1.99-.22-.74-.33-1.45-.33-2.15s.11-1.44.35-2.16c.24-.73.57-1.39,1.02-1.98.45-.59.99-1.08,1.62-1.45.63-.37,1.34-.56,2.14-.56h16.22c.37,0,.69.13.95.4.26.26.39.58.39.96s-.13.7-.39.96c-.26.27-.58.4-.95.4h-15.61c-.65,0-1.18.12-1.57.35-.4.23-.71.52-.95.86-.23.34-.39.71-.47,1.12-.09.4-.13.77-.13,1.11s.04.71.13,1.12c.08.4.24.78.47,1.12.23.34.55.62.95.86.4.24.92.35,1.57.35h13.49c.22,0,.42-.1.6-.31.17-.21.26-.45.26-.73s-.08-.53-.24-.73c-.16-.21-.37-.31-.63-.31h-10.54c-.37,0-.69-.13-.95-.4-.26-.26-.39-.58-.39-.96Z"/>
    <path class="cls-2" d="M191.38,48.27c-.26.27-.58.4-.95.4s-.69-.13-.95-.4c-.26-.26-.39-.58-.39-.96v-9.6c0-.38.13-.7.39-.96.26-.26.57-.4.95-.4s.69.13.95.4c.26.26.39.58.39.96v9.6c0,.38-.13.7-.39.96Z"/>
    <path class="cls-2" d="M215.97,36.74c.26.26.39.58.39.96s-.13.7-.39.96c-.26.27-.57.4-.94.4h-8.24v8.25c0,.38-.13.7-.39.96-.26.27-.57.4-.95.4s-.69-.13-.95-.4c-.26-.26-.39-.58-.39-.96v-8.25h-8.35c-.33-.04-.62-.18-.86-.44-.24-.25-.36-.56-.36-.92s.13-.7.39-.96c.26-.26.58-.4.95-.4h19.14c.37,0,.69.13.94.4Z"/>
    <path class="cls-2" d="M218.03,48.16c-.28.34-.62.51-1.03.51-.37,0-.69-.13-.94-.4-.26-.26-.39-.58-.39-.96,0-.34.09-.61.28-.82l6.76-9.24c.31-.43.73-.79,1.25-1.06.52-.28,1.08-.41,1.67-.41.56,0,1.08.12,1.59.37.5.24.91.58,1.22,1.02l6.76,9.18c.11.13.21.28.28.44.07.16.11.34.11.52,0,.38-.13.7-.39.96-.26.27-.57.4-.94.4-.45,0-.8-.18-1.06-.54l-6.48-8.79c-.13-.15-.29-.32-.49-.49-.19-.18-.39-.27-.6-.27s-.4.09-.6.27c-.2.18-.35.35-.46.49l-6.54,8.82Z"/>
    <path class="cls-2" d="M257.73,48.16c-.28.34-.62.51-1.03.51-.37,0-.69-.13-.94-.4-.26-.26-.39-.58-.39-.96,0-.34.09-.61.28-.82l6.76-9.24c.32-.43.73-.79,1.25-1.06.52-.28,1.08-.41,1.67-.41.56,0,1.08.12,1.58.37.5.24.91.58,1.23,1.02l6.76,9.18c.11.13.21.28.28.44.07.16.11.34.11.52,0,.38-.13.7-.39.96-.26.27-.57.4-.95.4-.44,0-.8-.18-1.06-.54l-6.48-8.79c-.13-.15-.29-.32-.49-.49-.19-.18-.39-.27-.6-.27s-.41.09-.6.27c-.2.18-.35.35-.46.49l-6.54,8.82Z"/>
    <path class="cls-2" d="M240.7,48.37c-.46-.2-.87-.47-1.21-.81-.35-.34-.62-.73-.82-1.19-.21-.46-.31-.94-.31-1.47v-7.2c0-.38.13-.7.39-.96.26-.26.57-.4.95-.4s.66.13.93.4c.27.26.4.58.4.96v7.2c0,.28.11.53.32.73.21.21.46.31.74.31h9.63c.37,0,.69.13.94.4.26.26.39.58.39.96s-.13.7-.39.96c-.26.27-.57.4-.94.4h-9.55c-.52,0-1.01-.1-1.48-.3Z"/>
  </g>
  <g>
    <path class="cls-2" d="M210.59,29.73c0,.35-.13.52-.38.52h-3.9c-.6,0-1.12-.1-1.57-.31-.58-.27-.87-.67-.87-1.21v-3.01c0-.3.1-.56.29-.79.42-.51,1.17-.76,2.24-.76h1.07c.25,0,.38.13.38.39v.12c0,.26-.13.39-.38.39-.02,0-.11,0-.28,0-.17,0-.32,0-.45,0-1.19,0-1.79.22-1.79.66v1.06h5.26c.27,0,.4.14.4.43,0,.13-.03.24-.1.33-.08.1-.18.15-.3.15h-5.25v1c0,.43.47.64,1.4.64h3.85c.26,0,.38.13.38.39Z"/>
    <path class="cls-2" d="M218.65,29.59c0,.46-.2.69-.6.69-.04,0-.08,0-.12,0-.13-.01-.3-.11-.5-.28l-5.09-4.39v4.25c0,.2-.08.32-.23.37-.05.02-.21.02-.48.02s-.38-.13-.38-.39v-5.07c0-.18.01-.29.03-.34.03-.08.11-.16.25-.24.08-.05.18-.07.28-.07.24,0,.48.11.73.32l5.02,4.34v-4.23c0-.2.08-.32.23-.37.05-.01.21-.02.48-.02s.39.13.39.39v5.03Z"/>
    <path class="cls-2" d="M226.72,26.47c0,.6-.3,1.04-.89,1.32-.43.2-.99.29-1.67.29h-3.78v1.78c0,.2-.08.32-.23.37-.05.02-.21.02-.48.02s-.38-.13-.38-.39v-5.29c0-.26.13-.39.38-.39h4.54c.58,0,1.1.09,1.56.26.63.24.95.61.95,1.09v.94ZM225.64,26.43v-.83c0-.35-.47-.53-1.42-.53h-3.84v2.09h3.85c.95,0,1.42-.25,1.42-.74Z"/>
    <path class="cls-2" d="M234.74,26.44c0,.55-.29.95-.86,1.2-.42.19-.94.28-1.56.28h-1.8l3.64,1.57c.19.08.29.21.29.39,0,.24-.15.36-.44.37-.33.01-.53,0-.61-.04l-4.97-2.16v1.8c0,.26-.13.39-.38.39-.27,0-.43,0-.48-.02-.15-.05-.23-.17-.23-.37v-5.29c0-.26.13-.39.38-.39h4.39c.68,0,1.24.09,1.68.27.62.26.94.68.94,1.27v.73ZM233.65,26.45v-.77c0-.41-.51-.61-1.53-.61h-3.68v1.94h3.87c.89,0,1.33-.19,1.33-.57Z"/>
    <path class="cls-2" d="M242.1,29.73c0,.35-.13.52-.38.52h-3.9c-.6,0-1.12-.1-1.57-.31-.58-.27-.87-.67-.87-1.21v-3.01c0-.3.1-.56.29-.79.42-.51,1.17-.76,2.24-.76h1.07c.25,0,.38.13.38.39v.12c0,.26-.13.39-.38.39-.02,0-.11,0-.28,0-.17,0-.32,0-.45,0-1.19,0-1.79.22-1.79.66v1.06h5.26c.27,0,.4.14.4.43,0,.13-.03.24-.1.33-.08.1-.18.15-.3.15h-5.25v1c0,.43.47.64,1.4.64h3.85c.26,0,.38.13.38.39Z"/>
    <path class="cls-2" d="M249.49,28.74c0,.32-.05.58-.15.76-.28.5-1.1.74-2.46.74h-3.77c-.25,0-.38-.13-.38-.39,0-.18.02-.3.05-.37.06-.1.16-.15.32-.15h3.77c1.02,0,1.53-.19,1.53-.57v-.52c0-.38-.49-.58-1.48-.61-1.68-.05-2.59-.09-2.74-.12-.98-.17-1.47-.62-1.47-1.34v-.46c0-.72.39-1.19,1.16-1.4.36-.1,1.03-.14,2.03-.14.26,0,.38.13.38.39v.12c0,.26-.13.39-.38.39h-.49c-1.07,0-1.61.21-1.61.64v.42c0,.26.22.44.67.52.18.03.5.04.96.04h1.46c.65,0,1.2.09,1.65.28.63.26.95.67.95,1.23v.54Z"/>
    <path class="cls-2" d="M258.15,29.68s.02.1.02.15c0,.16-.05.28-.16.39-.1.1-.23.15-.37.15-.21,0-.38-.1-.51-.3l-.97-1.43h-4.59l-.97,1.43c-.1.16-.22.23-.34.23-.07,0-.15-.02-.24-.06-.2-.09-.3-.21-.3-.36,0-.03,0-.07.03-.1l3.44-5.35c.13-.2.35-.31.67-.33.26-.01.45.06.57.22.01.03.03.06.06.11l3.65,5.25ZM255.52,27.73l-1.65-2.48-1.66,2.48h3.32Z"/>
  </g>
</svg>